<?xml version="1.0" encoding="iso-8859-1"?>
<!-- Generator: Adobe Illustrator 19.0.0, SVG Export Plug-In . SVG Version: 6.00 Build 0)  -->
<svg fill="#4D9AF2" version="1.1" id="Capa_1" xmlns="http://www.w3.org/2000/svg" xmlns:xlink="http://www.w3.org/1999/xlink" x="0px" y="0px"
	 viewBox="0 0 512.016 512.016" style="enable-background:new 0 0 512.016 512.016;" xml:space="preserve">
<g>
	<g>
		<path d="M501.92,290.648c-7.936-10.24-19.424-16.736-32.224-18.304c-12.704-1.632-25.152,1.984-35.04,9.728L320.64,370.488
			c-11.04,8.704-24.928,13.504-39.04,13.504h-27.456C274.976,363.64,288,335.352,288,304.024c0-8.832-7.168-16-16-16l-176-0.032v-16
			c0-8.832-7.168-16-16-16H16c-8.832,0-16,7.168-16,16v224c0,8.832,7.168,16,16,16h64c8.832,0,16-7.168,16-16v-16h213.12
			c17.408,0,34.72-5.952,48.832-16.8L493.28,357.944c10.24-7.904,16.768-19.328,18.368-32.16
			C513.216,313.08,509.728,300.568,501.92,290.648z M64,479.992H32v-192h32V479.992z M479.904,321.816
			c-0.544,4.288-2.72,8.128-6.208,10.848L338.4,437.88c-8.48,6.528-18.912,10.112-29.28,10.112H96v-128l158.4,0.032
			c-7.424,36.448-39.776,63.968-78.4,63.968c-8.832,0-16,7.168-16,16c0,8.832,7.168,16,16,16h105.6
			c21.28,0,42.176-7.264,58.784-20.32L454.4,307.288c3.232-2.56,7.328-3.552,11.392-3.2c4.32,0.544,8.16,2.72,10.912,6.272
			C479.264,313.624,480.384,317.688,479.904,321.816z"/>
	</g>
</g>
<g>
	<g>
		<path d="M496,191.992h-20.768C446.112,102.488,365.664,39.896,272,33.336V16.024c0-8.832-7.168-16-16-16c-8.832,0-16,7.168-16,16
			v17.312c-93.664,6.56-174.112,69.152-203.232,158.656H16c-8.832,0-16,7.168-16,16c0,8.832,7.168,16,16,16h480
			c8.832,0,16-7.168,16-16C512,199.16,504.832,191.992,496,191.992z M70.656,191.992c29.248-76.128,102.336-128,185.344-128
			s156.096,51.872,185.344,128H70.656z"/>
	</g>
</g>
<g>
</g>
<g>
</g>
<g>
</g>
<g>
</g>
<g>
</g>
<g>
</g>
<g>
</g>
<g>
</g>
<g>
</g>
<g>
</g>
<g>
</g>
<g>
</g>
<g>
</g>
<g>
</g>
<g>
</g>
</svg>
