<svg xmlns="http://www.w3.org/2000/svg" width="205.734" height="183" viewBox="0 0 205.734 183">
  <g id="Group_108" data-name="Group 108" transform="translate(-84 -252)">
    <circle id="Ellipse_53" data-name="Ellipse 53" cx="91.5" cy="91.5" r="91.5" transform="translate(84 252)" fill="#f6f9fe"/>
    <path id="Path_337" data-name="Path 337" d="M261.426,384.815a10.992,10.992,0,0,0-2.716,6.555,9.45,9.45,0,0,0,9.232-9.37A11.12,11.12,0,0,0,261.426,384.815Z" transform="translate(-118.979 -11.433)" fill="#4070ff" opacity="0.1"/>
    <path id="Path_338" data-name="Path 338" d="M308.836,122.8a11.071,11.071,0,0,0,4.218,5.708,11.069,11.069,0,0,0,.947-7.033,11.058,11.058,0,0,0-4.218-5.7A10.989,10.989,0,0,0,308.836,122.8Z" transform="translate(-106.802 286.066)" fill="#4070ff" opacity="0.1"/>
    <path id="Path_340" data-name="Path 340" d="M589.547,304.332a11.081,11.081,0,0,0,2.117,6.772,9.44,9.44,0,0,0,1.08-13.1A11.042,11.042,0,0,0,589.547,304.332Z" transform="translate(-418.585 -39.986)" fill="#4070ff" opacity="0.1"/>
    <path id="Path_341" data-name="Path 341" d="M917.6,500.559a7.45,7.45,0,0,0,1.423,4.554,6.35,6.35,0,0,0,.726-8.813A7.439,7.439,0,0,0,917.6,500.559Z" transform="translate(-669.777 -152.747)" fill="#4070ff" opacity="0.1"/>
    <path id="Path_339" data-name="Path 339" d="M886.508,172.868a11,11,0,0,0-2.718,6.555,9.446,9.446,0,0,0,9.232-9.373A11.184,11.184,0,0,0,886.508,172.868Z" transform="translate(-603.288 87.795)" fill="#4070ff" opacity="0.1"/>
    <ellipse id="Ellipse_59" data-name="Ellipse 59" cx="71.961" cy="6.282" rx="71.961" ry="6.282" transform="translate(103.882 383.437)" fill="#e3ebfe"/>
    <circle id="Ellipse_60" data-name="Ellipse 60" cx="1.12" cy="1.12" r="1.12" transform="translate(213.661 278.758)" fill="#fff"/>
    <path id="Path_380" data-name="Path 380" d="M420.809,355.856l-13.268,7.054-.168-5.878A39.291,39.291,0,0,0,419.633,353l1.388-3.428a2.324,2.324,0,0,1,3.95-.6h0a2.324,2.324,0,0,1-.2,3.169Z" transform="translate(-257.569 -44.364)" fill="#ffb8b8"/>
    <path id="Path_381" data-name="Path 381" d="M322.782,532.671h0a2.606,2.606,0,0,1,.331-2.109l2.915-4.473a5.093,5.093,0,0,1,6.608-1.743h0c-1.225,2.085-1.054,3.914.423,5.5a26.5,26.5,0,0,0-6.293,4.29,2.607,2.607,0,0,1-3.984-1.468Z" transform="translate(-191.96 -180.454)" fill="#2f2e41"/>
    <path id="Path_382" data-name="Path 382" d="M385.6,469.907h0a5,5,0,0,1-4.251,2.428l-19.362.147-.84-4.87,8.565-2.519-7.222-5.542,7.893-9.237,14.337,13.363A5,5,0,0,1,385.6,469.907Z" transform="translate(-221.754 -123.538)" fill="#2f2e41"/>
    <path id="Path_383" data-name="Path 383" d="M321.74,457h-4.535c-4.071-27.908-8.216-55.893,4.031-66.339l14.443,2.351-1.847,12.26-8.062,9.237Z" transform="translate(-184.532 -77.325)" fill="#2f2e41"/>
    <path id="Path_384" data-name="Path 384" d="M337,685.648h0a2.607,2.607,0,0,1-2.109-.331l-4.924-.662a5.093,5.093,0,0,1-1.744-6.607h0c2.085,1.225,3.914,1.054,5.5-.423,1.123,2.268,2.974,2.129,4.741,4.04A2.607,2.607,0,0,1,337,685.648Z" transform="translate(-195.808 -299.649)" fill="#2f2e41"/>
    <path id="Path_389" data-name="Path 389" d="M363.438,232.677c-5.308.52-9.353-.348-11.938-2.82v-1.991h11.488Z" transform="translate(-214.281 48.803)" fill="#2f2e41"/>
    <path id="Path_390" data-name="Path 390" d="M303.626,197.129h-.668V178.822a10.6,10.6,0,0,0-10.6-10.6H253.576a10.6,10.6,0,0,0-10.6,10.6V279.256a10.6,10.6,0,0,0,10.6,10.6h38.786a10.6,10.6,0,0,0,10.6-10.6v-69.1h.668Z" transform="translate(-80.932 98.991)" fill="#3f3d56"/>
    <path id="Path_391" data-name="Path 391" d="M293.853,171.985H288.79a3.759,3.759,0,0,1-3.481,5.179H263.09a3.759,3.759,0,0,1-3.481-5.179H254.88a7.913,7.913,0,0,0-7.913,7.913V280.185a7.913,7.913,0,0,0,7.913,7.913h38.973a7.913,7.913,0,0,0,7.913-7.913V179.9a7.913,7.913,0,0,0-7.913-7.913Z" transform="translate(-81.995 97.989)" fill="#fff"/>
    <path id="Path_392" data-name="Path 392" d="M842.833,273.178c-6.759-2.58-13.188-3.8-18.4,0V260.911a9.3,9.3,0,0,1,9.2-9.4h0a9.3,9.3,0,0,1,9.2,9.4Z" transform="translate(-690.775 21.519)" fill="#2f2e41"/>
    <circle id="Ellipse_64" data-name="Ellipse 64" cx="6.179" cy="6.179" r="6.179" transform="translate(135.747 276.795)" fill="#ffb8b8"/>
    <path id="Path_393" data-name="Path 393" d="M841.417,254.66V254.5l-.186.01a8.751,8.751,0,0,0-7.521-1.5,8.713,8.713,0,0,1,3.357,1.734l-6.321.351-2.668,5.929h1.806l1.455-2.668v2.668h6.107l.415-2.075,1.153,2.075h1.2c.007.148.019.295.019.445l-1.186,11.413,5.633-2.372V261.47A8.727,8.727,0,0,0,841.417,254.66Z" transform="translate(-692.619 20.738)" fill="#2f2e41"/>
    <path id="Path_385" data-name="Path 385" d="M370.289,268.043l-8.4-2.015a14.521,14.521,0,0,0,.84-9.405l5.71-.168A43.842,43.842,0,0,0,370.289,268.043Z" transform="translate(-222.332 26.654)" fill="#ffb8b8"/>
    <path id="Path_386" data-name="Path 386" d="M355.339,319.51c-6.113,4.165-10.432.142-13.728-6.064.458-3.8-.284-8.343-1.657-13.282a9.041,9.041,0,0,1,5.52-10.9h0l7.222,3.023c6.132,5,7.339,10.413,5.038,16.123Z" transform="translate(-205.074 1.237)" fill="#cfcce0"/>
    <path id="Path_387" data-name="Path 387" d="M279.487,302.858l-6.718,3.527,11.924,7.054,1.659,4.093a2.171,2.171,0,0,1-1.3,2.868h0a2.171,2.171,0,0,1-2.875-1.925l-.168-2.852-15.156-5a3.544,3.544,0,0,1-2.224-2.165h0a3.544,3.544,0,0,1,1.33-4.123l12.187-8.361Z" transform="translate(-146.814 -3.962)" fill="#ffb8b8"/>
    <path id="Path_388" data-name="Path 388" d="M329.952,297.431c-2.8-1.228-5.35.106-8.565,1.176l-.5-8.9c3.193-1.7,6.238-2.161,9.069-.84Z" transform="translate(-190.56 2.137)" fill="#cfcce0"/>
    <g id="Group_136" data-name="Group 136" transform="translate(155 312)" opacity="0.4">
      <circle id="Ellipse_61" data-name="Ellipse 61" cx="21.929" cy="21.929" r="21.929" transform="translate(15 -5)" fill="#8dff95"/>
    </g>
    <g id="Group_137" data-name="Group 137" transform="translate(151.387 308.387)" opacity="0.4">
      <circle id="Ellipse_61-2" data-name="Ellipse 61" cx="25.542" cy="25.542" r="25.542" transform="translate(15 -5)" fill="#8dff95"/>
    </g>
    <g id="Group_107" data-name="Group 107" transform="translate(174.5 311.5)">
      <circle id="Ellipse_61-3" data-name="Ellipse 61" cx="17.429" cy="17.429" r="17.429" fill="#8dff95"/>
      <path id="Path_394" data-name="Path 394" d="M243.495,281.578l5.965,5.965,11.857-11.857" transform="translate(-235.742 -263.832)" fill="none" stroke="#fff" stroke-width="2"/>
    </g>
  </g>
</svg>
