<?xml version="1.0" encoding="UTF-8" standalone="no"?>
<!DOCTYPE svg PUBLIC "-//W3C//DTD SVG 1.1//EN" "http://www.w3.org/Graphics/SVG/1.1/DTD/svg11.dtd">
<svg version="1.1" xmlns="http://www.w3.org/2000/svg" xmlns:xlink="http://www.w3.org/1999/xlink" preserveAspectRatio="xMidYMid meet" viewBox="0 0 640 640" width="640" height="640"><defs><path d="M508.73 340.43C496.15 359.49 433.24 454.81 320 626.38C206.76 454.81 143.85 359.49 131.27 340.43C112.75 308.43 102.13 271.25 102.13 231.49C102.13 111.11 199.63 13.62 320 13.62C440.37 13.62 537.87 111.11 537.87 231.49C537.87 271.25 527.25 308.43 508.73 340.43ZM320 122.55C259.81 122.55 211.06 171.3 211.06 231.49C211.06 291.68 259.81 340.43 320 340.43C380.19 340.43 428.94 291.68 428.94 231.49C428.94 171.3 380.19 122.55 320 122.55Z" id="b3csPiv2HQ"></path><path d="M308.63 633.89C311.16 637.7 315.42 640 320 640C324.58 640 328.84 637.7 331.37 633.89C350.29 605.22 501.61 375.91 520.52 347.25C540.79 312.22 551.49 272.19 551.49 231.49C551.49 103.84 447.65 0 320 0C192.35 0 88.51 103.84 88.51 231.49C88.51 272.19 99.21 312.22 119.48 347.23C119.61 347.48 119.75 347.71 119.9 347.93C157.64 405.12 289.76 605.29 308.63 633.89ZM524.26 231.49C524.26 267.41 514.82 302.72 497.36 332.92C485.54 350.84 426.42 440.42 320 601.67C213.71 440.63 154.67 351.17 142.86 333.28C125.11 302.47 115.74 267.29 115.74 231.49C115.74 118.86 207.37 27.23 320 27.23C432.63 27.23 524.26 118.86 524.26 231.49Z" id="cltLFyuXE"></path><path d="M442.55 231.49C442.55 163.92 387.58 108.94 320 108.94C252.42 108.94 197.45 163.92 197.45 231.49C197.45 299.06 252.42 354.04 320 354.04C387.58 354.04 442.55 299.06 442.55 231.49ZM415.32 231.49C415.32 284.05 372.55 326.81 320 326.81C267.45 326.81 224.68 284.05 224.68 231.49C224.68 178.93 267.45 136.17 320 136.17C372.55 136.17 415.32 178.93 415.32 231.49Z" id="f2evyElCr"></path><path d="M59.93 445.26L572.91 28.91" id="demOuEH2T"></path></defs><g><g><g><use xlink:href="#b3csPiv2HQ" opacity="1" fill="#fedfda" fill-opacity="1"></use><g><use xlink:href="#b3csPiv2HQ" opacity="1" fill-opacity="0" stroke="#000000" stroke-width="1" stroke-opacity="0"></use></g></g><g><use xlink:href="#cltLFyuXE" opacity="1" fill="#fb5b3b" fill-opacity="1"></use><g><use xlink:href="#cltLFyuXE" opacity="1" fill-opacity="0" stroke="#000000" stroke-width="1" stroke-opacity="0"></use></g></g><g><use xlink:href="#f2evyElCr" opacity="1" fill="#fc5b3b" fill-opacity="1"></use><g><use xlink:href="#f2evyElCr" opacity="1" fill-opacity="0" stroke="#000000" stroke-width="1" stroke-opacity="0"></use></g></g><g><g><use xlink:href="#demOuEH2T" opacity="1" fill-opacity="0" stroke="#ff583f" stroke-width="30.67" stroke-opacity="1"></use></g></g></g></g></svg>