<svg xmlns="http://www.w3.org/2000/svg" width="304.775" height="275.412" viewBox="0 0 304.775 275.412">
  <g id="Group_131" data-name="Group 131" transform="translate(-35.455 -164.288)">
    <g id="undraw_my_app_grf2" transform="translate(35.455 192.489)">
      <path id="Path_282" data-name="Path 282" d="M310.018,741.383c0,3.5-32.034,3.872-71.46,6.336-39.389,2.462-71.46-2.837-71.46-6.336s32.218-10.541,71.46-6.336C277.985,739.271,310.018,737.884,310.018,741.383Z" transform="translate(-167.099 -519.376)" fill="#e4eafe"/>
      <path id="Path_283" data-name="Path 283" d="M733.458,124.769h-84.7a18.006,18.006,0,0,0-17.565,14.046l-42.8,189.832a14.553,14.553,0,0,0,13.48,17.736l87.073,4.29a19.225,19.225,0,0,0,19.865-15.78L733.09,200.679l1.806.516,4.644-25.438-1.859-.465,6.777-37.464a11.086,11.086,0,0,0-11-13.059Z" transform="translate(-439.86 -124.769)" fill="#3f3d56"/>
      <path id="Path_284" data-name="Path 284" d="M675.68,136.395h-9.887a12.443,12.443,0,0,0-12.157,9.791l-41.08,188.283a7.71,7.71,0,0,0,7.029,9.337l86.792,5.688a9.986,9.986,0,0,0,10.481-8.194l35.054-194.609a8.746,8.746,0,0,0-8.608-10.3h-9.379a4.128,4.128,0,0,0-3.986,3.055h0a3.644,3.644,0,0,1-3.519,2.7H681.891a6.229,6.229,0,0,1-6.211-5.751Z" transform="translate(-455.632 -132.302)" fill="#fff"/>
      <path id="Path_285" data-name="Path 285" d="M528.288,403.084l7.653,15.15,22.881,10.4c2.444,4.13,10.208,4.446,10.773,1.775.634-3-9.429-7.818-9.429-7.818l-19.139-12.945L539.353,398.5Z" transform="translate(-401.143 -302.145)" fill="#e6a4ad"/>
      <path id="Path_286" data-name="Path 286" d="M361.155,575.559l-1.411,11.29,8.185.565.847-11.855Z" transform="translate(-233.108 -372.952)" fill="#a0616a"/>
      <path id="Path_287" data-name="Path 287" d="M524.625,717.693a22.155,22.155,0,0,1-2.02-2.47c-1.173-1.623-2.214,6.7-2.214,6.7s-1.129,3.387-.847,5.081,6.774,1.694,7.9,1.411a53.4,53.4,0,0,1,6.774,0h8.468c7.339-3.387,0-5.645,0-5.645-2.258-.282-9.879-7.339-9.879-7.339l-1.693-3.1c-1.129-.282-2.258,3.952-2.258,3.952Z" transform="translate(-395.448 -505.49)" fill="#fb5454"/>
      <path id="Path_288" data-name="Path 288" d="M301.019,575.96l-1.412,11.29,8.185.565.847-11.855Z" transform="translate(-194.14 -373.212)" fill="#a0616a"/>
      <path id="Path_289" data-name="Path 289" d="M464.487,718.094a22.16,22.16,0,0,1-2.02-2.47c-1.173-1.623-2.214,6.7-2.214,6.7s-1.129,3.1-.847,4.8,6.774,1.693,7.9,1.411,6.774.282,6.774.282h8.468c7.339-3.387,0-5.645,0-5.645-2.258-.282-9.879-7.339-9.879-7.339l-1.694-3.1c-1.129-.282-2.258,3.952-2.258,3.952Z" transform="translate(-356.48 -505.749)" fill="#fe6161"/>
      <path id="Path_290" data-name="Path 290" d="M476.913,492.7c-1.129,1.411-.565,6.21-.565,6.21s-1.976,15.524-1.129,16.935-.565,2.54-1.411,4.516a45.081,45.081,0,0,0-1.694,6.774c-4.8,3.952-4.516,22.016-4.516,22.016l-1.693,16.089c.565,1.694,8.468,1.976,9.6,1.694s4.516-25.685,4.516-25.685l7.621-14.395s-.564,38.387-.564,40.08,7.621.847,9.314.847,1.694-28.226,1.694-28.226l1.694-7.339,9.032-33.588V494.68L507.4,492.7S478.042,491.293,476.913,492.7Z" transform="translate(-360.72 -362.778)" fill="#2f2e41"/>
      <ellipse id="Ellipse_42" data-name="Ellipse 42" cx="8.75" cy="10.75" rx="8.75" ry="10.75" transform="translate(116.862 47.354)" fill="#e6a4ad"/>
      <path id="Path_291" data-name="Path 291" d="M523.582,298.615c-1.774,3.949-.723,9.466,2.823,15.524l-14.4-6.774,2.258-1.976-.565-5.645Z" transform="translate(-393.595 -236.418)" fill="#e6a4ad"/>
      <path id="Path_292" data-name="Path 292" d="M502.575,319.576c3.607.609,4.276,3.721,4.924,5.816a49.989,49.989,0,0,1,2.148,11.944l.684,12.136,8.468,32.177c-7.339,6.21-11.572,4.8-21.451-.282s-11.008,1.694-11.008,1.694-.847-.282,0-1.129,0,0-.847-.847,0,0,.282-.847,0-.282-.282-.565,1.129-2.823,1.129-2.823l-2.258-21.169-2.823-29.919c3.387-4.234,10.167-7.216,10.167-7.216l7.542,6.846c2.823,1.129.8-6.846.8-6.846Z" transform="translate(-370.852 -249.888)" fill="#1479ec"/>
      <path id="Path_293" data-name="Path 293" d="M466.232,391.226,465.1,408.161l14.4,20.6c0,4.8,2.54,5.927,2.54,5.927a37.311,37.311,0,0,0,2.54-4.8,5.479,5.479,0,0,0-.847-5.645l-9.879-20.887,4.234-10.443Z" transform="translate(-360.2 -297.428)" fill="#e6a4ad"/>
      <path id="Path_294" data-name="Path 294" d="M471.551,339.639c-4.8,1.694-5.645,20.04-5.645,20.04,5.645-3.1,12.419,1.976,12.419,1.976s1.411-4.8,3.1-11.008a10.788,10.788,0,0,0-2.258-10.161S476.349,337.946,471.551,339.639Z" transform="translate(-360.72 -263.624)" fill="#1479ec"/>
      <path id="Path_295" data-name="Path 295" d="M507.138,267.283c-.741-5.572,2.633.729,2.633.729l.891-8.02s5.989,1.487,9.553.6,3.513,2.155,3.513,2.155c.184-1.664,1.7-5.309,1.593-6.979-.223-2.005-4.854-2.036-9.978-3.373s-7.355,4.705-7.355,4.705C502.978,258.432,507.879,272.854,507.138,267.283Z" transform="translate(-389.57 -206.497)" fill="#2f2e41"/>
      <path id="Path_296" data-name="Path 296" d="M761.6,252.875c-.113,1.427.56-4.1.627-4.249l8.172-45.633c.037-.087-2.2-.016-2.334-.084s-12.68-.441-12.888-.442l-63.934-2.615c-.329,0-11.908-.775-11.981-.638l-10.438,47.376c-.045.087,0,.178.127.248a1.176,1.176,0,0,0,.526.118Z" transform="translate(-492.196 -113.153)" fill="#e3ebfe"/>
      <path id="Path_297" data-name="Path 297" d="M711.077,529.535a.351.351,0,0,0-.342.272l-.818,3.5a.352.352,0,0,0,.318.431l46.2,3.283a.355.355,0,0,0,.371-.284l.786-4.055a.352.352,0,0,0-.324-.418L711.1,529.536Z" transform="translate(-518.829 -387.05)" fill="#e6e6e6"/>
      <path id="Path_298" data-name="Path 298" d="M763.4,571.439a.353.353,0,0,0,.37-.267l1-4.063a.352.352,0,0,0-.318-.436l-58.993-4.126a.348.348,0,0,0-.362.251l-1.04,3.511a.352.352,0,0,0,.309.451Z" transform="translate(-515.031 -408.441)" fill="#e6e6e6"/>
      <path id="Path_299" data-name="Path 299" d="M754.4,608.439a.352.352,0,0,0,.37-.267l1-4.063a.352.352,0,0,0-.318-.436l-58.993-4.126a.348.348,0,0,0-.362.251l-1.04,3.511a.352.352,0,0,0,.309.451Z" transform="translate(-509.2 -432.416)" fill="#e6e6e6"/>
      <path id="Path_300" data-name="Path 300" d="M719.779,665.8a.348.348,0,0,0,.375-.265l2.117-8.466a.352.352,0,0,0-.312-.437L685.73,653.58a.359.359,0,0,0-.373.274l-1.806,8.126a.352.352,0,0,0,.311.427Z" transform="translate(-501.745 -467.429)" fill="#1479ec"/>
      <path id="Path_306" data-name="Path 306" d="M759.743,251.176c-.113,1.427.629-2.579.7-2.727l9.224-45.54c.037-.087-1.469.069-1.6,0s-12.68-.441-12.888-.442L692.6,200.359c-.329,0-12.673-.775-12.746-.637L669.7,247C669.659,247.086,671.006,247.169,759.743,251.176Z" transform="translate(-481.196 -165.153)" fill="#e3ebfe"/>
    </g>
    <path id="Path_301" data-name="Path 301" d="M261.961,385.37c-3.064,3.1-3.251,7.847-3.251,7.847s4.746-.27,7.8-3.37S269.761,382,269.761,382,265.012,382.279,261.961,385.37Z" transform="translate(-195.621 -80.774)" fill="#4070ff" opacity="0.1"/>
    <path id="Path_302" data-name="Path 302" d="M308.886,124.186c1.082,4.213,5.049,6.832,5.049,6.832s2.215-4.207,1.134-8.419-5.049-6.829-5.049-6.829S307.792,119.977,308.886,124.186Z" transform="translate(-210.214 55.887)" fill="#4070ff" opacity="0.1"/>
    <path id="Path_303" data-name="Path 303" d="M887.044,173.423c-3.064,3.1-3.254,7.847-3.254,7.847s4.749-.27,7.8-3.37,3.251-7.85,3.251-7.85S890.1,170.341,887.044,173.423Z" transform="translate(-586.186 -5.762)" fill="#4070ff" opacity="0.1"/>
    <path id="Path_304" data-name="Path 304" d="M589.551,305.58c-.355,4.332,2.534,8.107,2.534,8.107s3.471-3.251,3.827-7.586-2.534-8.1-2.534-8.1S589.907,301.245,589.551,305.58Z" transform="translate(-394.076 -89.51)" fill="#4070ff" opacity="0.1"/>
    <path id="Path_305" data-name="Path 305" d="M917.611,503.883c-.355,4.332,2.534,8.107,2.534,8.107s3.471-3.251,3.827-7.583-2.534-8.107-2.534-8.107S917.967,499.551,917.611,503.883Z" transform="translate(-592.624 -148.054)" fill="#4070ff" opacity="0.1"/>
    <ellipse id="Ellipse_43" data-name="Ellipse 43" cx="8.251" cy="1.394" rx="8.251" ry="1.394" transform="translate(288.858 436.912)" fill="#4070ff"/>
    <ellipse id="Ellipse_44" data-name="Ellipse 44" cx="12.32" cy="2.083" rx="12.32" ry="2.083" transform="translate(310.885 421.409)" fill="#4070ff"/>
    <path id="Path_313" data-name="Path 313" d="M1013.658,740.767a3.594,3.594,0,0,0,1.176-1.774,1.579,1.579,0,0,0-.821-1.8,2.3,2.3,0,0,0-2.169.763,2.9,2.9,0,0,1-2.111,1.017,3.208,3.208,0,0,0,.993-3.006,1.259,1.259,0,0,0-.276-.613c-.42-.447-1.176-.254-1.679.1-1.593,1.121-2.037,3.284-2.047,5.233a9.837,9.837,0,0,1-.027-2.145,2.216,2.216,0,0,0-.809-1.909,2.473,2.473,0,0,0-1.226-.306,2.564,2.564,0,0,0-2,.57,1.971,1.971,0,0,0,.08,2.451A8.01,8.01,0,0,0,1004.81,741a4.6,4.6,0,0,1,1.483,1.412,1.549,1.549,0,0,1,.11.251h4.489A12.482,12.482,0,0,0,1013.658,740.767Z" transform="translate(-685.362 -320.682)" fill="#4070ff"/>
    <path id="Path_314" data-name="Path 314" d="M928.492,789.357a3.588,3.588,0,0,0,1.173-1.774,1.584,1.584,0,0,0-.821-1.8,2.3,2.3,0,0,0-2.169.763,2.9,2.9,0,0,1-2.111,1.017,3.207,3.207,0,0,0,.993-3.006,1.226,1.226,0,0,0-.276-.613c-.417-.447-1.177-.254-1.676.1-1.593,1.121-2.037,3.284-2.047,5.233a9.642,9.642,0,0,1-.031-2.145,2.215,2.215,0,0,0-.809-1.909,2.451,2.451,0,0,0-1.225-.291,2.563,2.563,0,0,0-2,.57,1.971,1.971,0,0,0,.08,2.451,7.977,7.977,0,0,0,2.074,1.661,4.6,4.6,0,0,1,1.48,1.412,1.541,1.541,0,0,1,.11.251h4.489A12.56,12.56,0,0,0,928.492,789.357Z" transform="translate(-626.287 -354.385)" fill="#4070ff"/>
    <path id="Path_315" data-name="Path 315" d="M556.563,741.138a1.9,1.9,0,0,0-1.118.393c-.953-2.517-2.427-4.135-4.084-4.135s-3.131,1.618-4.084,4.135a1.9,1.9,0,0,0-1.118-.393c-1.882,0-3.408,3.183-3.408,7.109h17.219C559.971,744.321,558.446,741.138,556.563,741.138Z" transform="translate(-487.479 -336.837)" fill="#4070ff"/>
    <path id="Path_166" data-name="Path 166" d="M551.8,739.847a1.242,1.242,0,0,0-.732.258c-.624-1.648-1.589-2.708-2.674-2.708s-2.05,1.059-2.674,2.708a1.241,1.241,0,0,0-.732-.257c-1.232,0-2.231,2.084-2.231,4.655h11.275C554.027,741.931,553.028,739.847,551.8,739.847Z" transform="translate(-468.535 -326.091)" fill="#4070ff"/>
  </g>
</svg>
