<?xml version="1.0" encoding="utf-8"?>
<!-- Generator: Adobe Illustrator 23.0.1, SVG Export Plug-In . SVG Version: 6.00 Build 0)  -->
<svg version="1.1" id="Layer_1" xmlns="http://www.w3.org/2000/svg" xmlns:xlink="http://www.w3.org/1999/xlink" x="0px" y="0px"
	 viewBox="0 0 331.8 85.6" style="enable-background:new 0 0 331.8 85.6;" xml:space="preserve">
<style type="text/css">
	.st0{fill:#1479EC;}
</style>
<path class="st0" d="M44.8,0C20,0,0,20,0,44.7c0,17.4,10,33.2,25.7,40.6c1.6,0.8,3.5,0.1,4.3-1.5c0.2-0.4,0.3-0.9,0.3-1.4V44.8
	c0-8,6.5-14.5,14.5-14.5c8,0,14.5,6.5,14.5,14.5c0.1,1.8,1.6,3.2,3.4,3.1c1.7-0.1,3-1.4,3.1-3.1c0.6-11.6-8.3-21.5-19.8-22.1
	C34.3,22.1,24.4,31,23.8,42.5c0,0.7,0,1.5,0,2.2v32c-17.7-11.6-22.6-35.3-11-53c11.6-17.7,35.3-22.6,53-11
	c17.7,11.6,22.6,35.3,11,53c-3.9,5.9-9.3,10.6-15.7,13.6c-1.6,0.8-2.2,2.8-1.4,4.4c0.8,1.5,2.6,2.1,4.1,1.5
	c22.4-10.5,32-37.2,21.4-59.6C77.9,10,62.1,0,44.8,0L44.8,0z"/>
<path class="st0" d="M44.8,48.4c-2.9,0-5.3,2.4-5.3,5.3s2.4,5.3,5.3,5.3c2.9,0,5.2-2.4,5.2-5.3c0,0,0,0,0,0
	C50,50.8,47.7,48.4,44.8,48.4z"/>
<polygon class="st0" points="116.5,68.3 123.6,68.3 123.6,47.1 151.8,47.1 151.8,40.1 123.6,40.1 123.6,26 158.8,26 158.8,18.9 
	116.5,18.9 "/>
<rect x="162.3" y="33" class="st0" width="7.1" height="35.3"/>
<path class="st0" d="M177.1,47.1v21.2h7V47.1c0-4.7,2.3-7,7-7h7v-7h-7C181.8,33.1,177.1,37.7,177.1,47.1z"/>
<path class="st0" d="M238.2,33c-4.7,0-8.2,1.2-10.6,3.5c-2.3-2.4-5.9-3.5-10.6-3.5c-9.4,0-14.1,4.7-14.1,14.1v21.2h7V47.1
	c0-4.7,2.3-7,7-7s7,2.4,7,7v21.2h7V47.1c0-4.7,2.3-7,7-7c4.7,0,7,2.4,7,7v21.2h7V47.1C252.2,37.7,247.5,33,238.2,33z"/>
<path class="st0" d="M286.1,54.2c0,4.7-2.3,7-7,7h-7c-4.7,0-7-2.3-7-7V33h-7v21.2c0,9.4,4.7,14.1,14.1,14.1h7
	c9.4,0,14.1-4.7,14.1-14.1V33h-7L286.1,54.2z"/>
<path class="st0" d="M314.2,47.1c-7.1-0.7-10.6-2.1-10.6-4.1c0-2,2.3-3,7-3h19.4v-7h-19.4c-9.4,0-14.1,3.3-14.1,10
	s5.9,10.4,17.7,11.1c7,0.7,10.6,2,10.6,4s-2.3,3-7,3h-19.5v7h19.4c9.4,0,14.1-3.3,14.1-10C331.8,51.6,326,47.9,314.2,47.1z"/>
<path class="st0" d="M165.8,18.4c-2.3,0-4.1,1.8-4.1,4.1s1.8,4.1,4.1,4.1c2.3,0,4.1-1.8,4.1-4.1c0,0,0,0,0,0
	C169.9,20.2,168.1,18.4,165.8,18.4C165.8,18.4,165.8,18.4,165.8,18.4z"/>
</svg>
