<svg xmlns="http://www.w3.org/2000/svg" width="253.504" height="236.615" viewBox="0 0 253.504 236.615">
  <g id="Group_132" data-name="Group 132" transform="translate(-62.927 -366.653)">
    <path id="Path_427" data-name="Path 427" d="M739.289,182.65c-15.488-49.975-69-86.051-131.821-87.5-33.21-.765-68.156,8.273-93.6,39.9-45.482,56.536,2.795,95.6,36.452,114.169a202.456,202.456,0,0,1,43.531,32.106c22.734,22.138,66.47,49.647,118.558,6.544C750.165,256.629,749.607,215.938,739.289,182.65Z" transform="translate(-432.385 292.678)" fill="#f6f9fe"/>
    <g id="undraw_My_location_re_r52x" transform="translate(62.927 366.653)">
      <path id="Path_460" data-name="Path 460" d="M741.619,660.6l-.352-.132c-.077-.029-7.786-2.983-11.4-9.679s-1.843-14.76-1.825-14.841l.083-.367.352.132c.077.029,7.786,2.983,11.4,9.679s1.843,14.76,1.825,14.841Zm-11.172-10.123c3.053,5.662,9.145,8.565,10.688,9.227.293-1.654,1.214-8.344-1.837-14s-9.144-8.563-10.688-9.227C728.318,638.132,727.4,644.82,730.448,650.477Z" transform="translate(-488.647 -426.85)" fill="#e5f0fd"/>
      <path id="Path_461" data-name="Path 461" d="M713.245,669.147c6.49,3.9,8.989,11.659,8.989,11.659s-8.022,1.425-14.512-2.479-8.989-11.659-8.989-11.659S706.756,665.242,713.245,669.147Z" transform="translate(-469.263 -447.558)" fill="#0019fe"/>
      <path id="Path_474" data-name="Path 474" d="M202.3,55.575h-1.285v-35.2A20.373,20.373,0,0,0,180.642,0H106.064A20.373,20.373,0,0,0,85.691,20.374V213.489a20.373,20.373,0,0,0,20.373,20.373h74.578a20.373,20.373,0,0,0,20.373-20.373h0V80.631H202.3Z" transform="translate(-57.549 0)" fill="#3f3d56"/>
      <path id="Path_475" data-name="Path 475" d="M208.178,31.358V224.189A15.2,15.2,0,0,1,192.99,239.4H118.026a15.2,15.2,0,0,1-15.215-15.194V31.358A15.2,15.2,0,0,1,118,16.143h9.112a7.228,7.228,0,0,0,6.693,9.957h42.726a7.228,7.228,0,0,0,6.693-9.957h9.734A15.2,15.2,0,0,1,208.178,31.33v.027Z" transform="translate(-69.047 -10.841)" fill="#fff"/>
      <path id="Path_476" data-name="Path 476" d="M208.178,59.887V53.319h-9.941V17.082a15.168,15.168,0,0,0-5.274-.939h-1.294V53.319H157.186V26.1h-6.568V53.319h-28.9V16.143h-3.691a15.07,15.07,0,0,0-2.877.273v36.9H102.811v6.568h12.338V75.079L102.811,82.2v7.586l12.338-7.123v45.2H102.811v6.568h12.338v65.353H102.811v6.568h12.338v32.775a15.074,15.074,0,0,0,2.877.273h3.691V206.357h28.9V239.4h6.568V206.357h34.483V239.4h1.294a15.167,15.167,0,0,0,5.274-.939V206.357h9.941v-6.568h-9.941V171.218h9.852v-6.568h-9.852V134.436h9.941v-6.568h-9.941V87.8h9.941V81.234h-9.941V59.887Zm-66.713,0h0l-19.747,11.4h0v-11.4ZM121.717,78.872h0l28.9-16.686v65.682h-28.9Zm0,120.916V134.436h28.9v65.353Zm69.951,0H157.186V171.217h34.483Zm0-35.14H157.186V134.436h34.483Zm0-36.782H157.186V87.8h34.483Zm0-46.634H157.186V59.887h34.483Z" transform="translate(-69.047 -10.841)" fill="#e5f0fd"/>
    </g>
    <path id="Path_433" data-name="Path 433" d="M771.157,220.508c-.163-.581-.34-1.168-.524-1.744l.581-.186c.187.583.365,1.177.531,1.764Z" transform="translate(-578.718 204.351)" fill="#3f3d56"/>
    <path id="Path_442" data-name="Path 442" d="M972.714,139.824C970.561,146.2,967.26,152,960.533,152s-11.8-5.464-12.181-12.181c-.484-8.583,5.3-12.217,12.181-12.181C968.663,127.685,975.27,132.26,972.714,139.824Z" transform="translate(-702.158 267.522)" fill="#2f2e41"/>
    <rect id="Rectangle_259" data-name="Rectangle 259" width="24.041" height="30.452" transform="translate(246.194 406.384)" fill="#2f2e41"/>
    <path id="Path_443" data-name="Path 443" d="M1025.334,238.7h2.045a18.2,18.2,0,0,1,2.726,15c-2.272,8.634-.454,10.224-.454,10.224s2.958,9.35-.223,23.437,2.949,17.915,2.949,17.915l-5.68-11.36-3.181-29.991Z" transform="translate(-754.393 190.374)" fill="#575a89"/>
    <path id="Path_444" data-name="Path 444" d="M1025.334,241.146h2.045a18.2,18.2,0,0,1,2.726,15c-2.272,8.634-.454,10.224-.454,10.224s2.958,9.35-.223,23.437,2.949,17.915,2.949,17.915l-5.68-11.36-3.181-29.991Z" transform="translate(-754.393 188.673)" opacity="0.1"/>
    <path id="Path_445" data-name="Path 445" d="M977.6,202.521s-1.818,7.271-.909,7.271,4.09,3.863,4.09,3.863l2.045,7.5-1.59,5.453-5.453-1.136-6.816-7.5-2.045-2.045-1.818-6.589s2.272-2.726.682-5S977.6,202.521,977.6,202.521Z" transform="translate(-713.812 215.531)" fill="#fbbebe"/>
    <path id="Path_446" data-name="Path 446" d="M977.6,202.521s-1.818,7.271-.909,7.271,4.09,3.863,4.09,3.863l2.045,7.5-1.59,5.453-5.453-1.136-6.816-7.5-2.045-2.045-1.818-6.589s2.272-2.726.682-5S977.6,202.521,977.6,202.521Z" transform="translate(-713.812 215.531)" opacity="0.1"/>
    <path id="Path_448" data-name="Path 448" d="M979.133,488.841,975.5,515.424s.454,2.045-4.09,9.543-16.813,23.857-16.813,23.857l-3.635-6.816s4.317-21.585,11.815-26.129l-.909-32.718Z" transform="translate(-703.988 20.549)" fill="#fbbebe"/>
    <path id="Path_449" data-name="Path 449" d="M979.133,488.841,975.5,515.424s.454,2.045-4.09,9.543-16.813,23.857-16.813,23.857l-3.635-6.816s4.317-21.585,11.815-26.129l-.909-32.718Z" transform="translate(-703.988 20.549)" opacity="0.1"/>
    <path id="Path_450" data-name="Path 450" d="M924.6,666.973l5,9.543s-4.09,11.588-2.5,12.724,3.635,11.36-.682,10.224-7.725-5.68-7.725-6.362,2.5-10.224,1.136-12.5a11.028,11.028,0,0,0-2.272-2.954l-3.408,5.68-1.136-.682,5.68-9.543a5.989,5.989,0,0,1,3.408-2.954Z" transform="translate(-677.624 -107.144)" fill="#2f2e41"/>
    <path id="Path_451" data-name="Path 451" d="M924.6,666.973l5,9.543s-4.09,11.588-2.5,12.724,3.635,11.36-.682,10.224-7.725-5.68-7.725-6.362,2.5-10.224,1.136-12.5a11.028,11.028,0,0,0-2.272-2.954l-3.408,5.68-1.136-.682,5.68-9.543a5.989,5.989,0,0,1,3.408-2.954Z" transform="translate(-677.624 -107.144)" opacity="0.1"/>
    <path id="Path_452" data-name="Path 452" d="M945.894,485.07s1.765,25.129-2.1,31.718v32.718l-5.226.682s-10.553-17.322-6.691-34.362-3.988-32.664-3.988-32.664Z" transform="translate(-687.963 20.548)" fill="#fbbebe"/>
    <circle id="Ellipse_79" data-name="Ellipse 79" cx="9.543" cy="9.543" r="9.543" transform="translate(247.085 404.533)" fill="#fbbebe"/>
    <path id="Path_453" data-name="Path 453" d="M870.453,236.143,860.91,224.1l-5.453-3.635-2.273,2.954-6.362,1.818s-4.09.909-8.407,5.907-12.042,7.952-12.042,7.952l-6.362-1.136s-7.5-3.408-7.5-4.317-6.589,6.135-5,8.861,5,6.135,6.816,7.952,2.5,7.043,13.632,5.453,15.223-7.043,15.223-7.043,2.045,10.452,7.952,12.5,25.22,3.408,25.22,3.408l4.09-13.632s4.544-5.907-1.591-14.541a56.976,56.976,0,0,0-.777-8.042,5.311,5.311,0,0,0-1.04-2.637c-1.59-1.363-10-3.635-10-3.635s1.363,4.544,2.045,4.771S871.36,235.007,870.453,236.143Z" transform="translate(-604.168 203.039)" fill="#575a89"/>
    <path id="Path_454" data-name="Path 454" d="M905.322,409.26c11.442-1.071,18.1,1.453,21.076,3.378a7.537,7.537,0,0,1,1.55,1.267,1.074,1.074,0,0,1,.323.557c0,.918,15.677,2.754,21.358.918s-3.863-41.3-6.362-44.67-1.152-15.684-1.152-15.684-4.983-1.45-6.346-.838-8.407-.918-10.906-2.754-5.68-.612-7.725-1.224a1.18,1.18,0,0,0-1.6.78,4.872,4.872,0,0,1-1.554,2.114c-4.824,3.742-8.7,29.614-11.61,43.917C899.187,412.625,905.322,409.26,905.322,409.26Z" transform="translate(-669.597 112.229)" fill="#2f2e41"/>
    <path id="Path_455" data-name="Path 455" d="M965.237,693.763l.909,5s4.773,6.816,3.408,12.5c0,0,1.136,7.5,5.226,9.543s.682,6.816-3.181,6.589-7.5.227-7.952-.909-3.181-12.269-3.181-12.269l-.746,13.028-2.272.227.746-15.073s-1.818-3.408.682-9.088l-.631-8.719S964.556,696.035,965.237,693.763Z" transform="translate(-708.496 -125.754)" fill="#2f2e41"/>
    <path id="Path_456" data-name="Path 456" d="M983.154,470.347a7.533,7.533,0,0,1,1.55.941c.12-2.147.816-15.132-.018-14.923Z" transform="translate(-726.354 39.165)" opacity="0.1"/>
    <path id="Path_457" data-name="Path 457" d="M942.267,144.452s-.106-.588-4.239.962-6.611,12.988-4.544,19.7a6.154,6.154,0,0,1-.95,6.024,9.951,9.951,0,0,0,3.528,15.455q.256.112.522.221l2.583,1.55a11.814,11.814,0,0,1-1.645-9.876,28.418,28.418,0,0,0,.513-14.548c-.189-.812-.4-1.648-.648-2.5-2.067-7.233-1.062-6.4,6.172-13.631a45.978,45.978,0,0,0,7.75,4.65c3.617,1.55,6.716,3.1,4.133,8.266s-8.783,9.816-4.65,16.533,4.65,4.133,4.133,6.716h0l-.517,2.583,3.1-3.1-2.067,4.133s6.716,0,8.783-5.167l1.033,1.033s4.133-7.233-3.617-13.95c0,0-2.583-1.55,1.033-6.717s.839-16.275-3.811-18.341S942.267,144.452,942.267,144.452Z" transform="translate(-689.59 256.483)" fill="#2f2e41"/>
    <circle id="Ellipse_80" data-name="Ellipse 80" cx="4.808" cy="4.808" r="4.808" transform="translate(253.567 388.113)" fill="#2f2e41"/>
    <path id="Path_458" data-name="Path 458" d="M967.226,100.955a4.808,4.808,0,0,1,4.327-4.784c-.158-.016-.318-.024-.48-.024a4.808,4.808,0,0,0,0,9.617c.162,0,.323-.009.481-.024A4.808,4.808,0,0,1,967.226,100.955Z" transform="translate(-714.621 289.402)" fill="#2f2e41"/>
    <circle id="Ellipse_81" data-name="Ellipse 81" cx="5.503" cy="5.503" r="5.503" transform="translate(63.927 561.112)" fill="#f6f9fe"/>
    <circle id="Ellipse_82" data-name="Ellipse 82" cx="5.503" cy="5.503" r="5.503" transform="translate(68.43 522.889)" fill="#f6f9fe"/>
    <circle id="Ellipse_83" data-name="Ellipse 83" cx="5.503" cy="5.503" r="5.503" transform="translate(76.679 543.326)" fill="#f6f9fe"/>
    <path id="Path_447" data-name="Path 447" d="M791.435,230.744l-5-8.179s-5.4-11.938-9.258-7.622,5.85,13.075,5.85,13.075l5,6.589Z" transform="translate(-582.634 207.529)" fill="#fbbebe"/>
    <path id="Path_459" data-name="Path 459" d="M758.5,154.326A10.171,10.171,0,0,0,748.329,164.5c0,5.617,10.171,24.155,10.171,24.155S768.67,170.114,768.67,164.5A10.171,10.171,0,0,0,758.5,154.326Zm0,15.51a5.34,5.34,0,1,1,5.34-5.34,5.34,5.34,0,0,1-5.34,5.34Z" transform="translate(-563.224 248.985)" fill="#0019fe"/>
  </g>
</svg>
