<svg xmlns="http://www.w3.org/2000/svg" xmlns:xlink="http://www.w3.org/1999/xlink" width="200.821" height="176" viewBox="0 0 200.821 176">
  <defs>
    <clipPath id="clip-path">
      <rect width="3.173" height="3.173" fill="none"/>
    </clipPath>
  </defs>
  <g id="Group_106" data-name="Group 106" transform="translate(-87.09 -264.198)">
    <circle id="Ellipse_53" data-name="Ellipse 53" cx="88" cy="88" r="88" transform="translate(97.09 264.198)" fill="#f6f9fe"/>
    <path id="Path_336" data-name="Path 336" d="M9.357.275a14.274,14.274,0,0,0-6.22.138C1.167,1.073-.464,3,.12,4.843,1.427,8.951,9.092,6.09,12.627,8.9c1.262,1,1.754,2.582,2.74,3.814,1.595,2,4.337,2.934,6.983,3.447,15.9,3.084,34.024-4.853,47.959,2.79,4.513,2.476,8.072,6.417,13.02,8.069,6.555,2.189,13.734-.15,20.517-1.649A83.969,83.969,0,0,1,129.5,23.756c6.342.587,14.779.783,16.809-4.741,1.306-3.553-1.458-7.508-5.127-9.189S133.221,8.2,129.123,8.358c-7.908.34-15.818,1.027-23.726.692C90.1,8.4,75.658,1.129,60.767.888,43.425.636,26.78,2.382,9.357.275Z" transform="matrix(-0.999, 0.052, -0.052, -0.999, 264.276, 429.269)" fill="#4070ff" opacity="0.1"/>
    <path id="Path_337" data-name="Path 337" d="M260.472,383.827a7.131,7.131,0,0,0-1.762,4.253A6.131,6.131,0,0,0,264.7,382,7.214,7.214,0,0,0,260.472,383.827Z" transform="translate(-110.318 -25.508)" fill="#4070ff" opacity="0.1"/>
    <path id="Path_338" data-name="Path 338" d="M308.748,120.332a7.183,7.183,0,0,0,2.737,3.7,6.126,6.126,0,0,0-2.122-8.265A7.13,7.13,0,0,0,308.748,120.332Z" transform="translate(-119.932 261.01)" fill="#4070ff" opacity="0.1"/>
    <path id="Path_340" data-name="Path 340" d="M589.538,302.108a7.19,7.19,0,0,0,1.373,4.394,6.125,6.125,0,0,0,.7-8.5A7.164,7.164,0,0,0,589.538,302.108Z" transform="translate(-420.882 -14.535)" fill="#4070ff" opacity="0.1"/>
    <path id="Path_341" data-name="Path 341" d="M917.6,500.41a7.189,7.189,0,0,0,1.373,4.394,6.127,6.127,0,0,0,.7-8.5A7.179,7.179,0,0,0,917.6,500.41Z" transform="translate(-663.028 -144.133)" fill="#4070ff" opacity="0.1"/>
    <g id="undraw_mobile_posts_tlwg" transform="translate(87.09 285.393)">
      <ellipse id="Ellipse_54" data-name="Ellipse 54" cx="18.752" cy="3.978" rx="18.752" ry="3.978" transform="translate(139.2 134.096)" fill="#e3ebfe"/>
      <path id="Path_342" data-name="Path 342" d="M732.758,338.734l-1.344.444-.186,1.162a.388.388,0,0,0,.624.365l.859-.683Z" transform="translate(-601.059 -292.935)" fill="#2f2e41"/>
      <path id="Path_343" data-name="Path 343" d="M737.522,312.154l-4.16,6.39-1.3-.844,4.16-6.39a.774.774,0,0,1,1.3.844Z" transform="translate(-601.711 -271.457)" fill="#4070ff"/>
      <path id="Path_344" data-name="Path 344" d="M750.323,312.154l-.406.624a1.323,1.323,0,0,1-1.3-.844l.406-.624a.774.774,0,1,1,1.3.844Z" transform="translate(-614.512 -271.457)" fill="#2f2e41"/>
      <path id="Path_345" data-name="Path 345" d="M754.121,339.482l-6.971,2.826-10.8-7.712s-2.754-5.783-6.059-3.029c-1.132.943,3.425,4.614,3.856,4.957,1.077.858,10.927,10.683,12.32,10.173s7.481-1.434,7.481-1.434Z" transform="translate(-600.203 -286.817)" fill="#ffb8b8"/>
      <path id="Path_346" data-name="Path 346" d="M840.681,270.237c-5.968-2.23-11.645-3.285-16.248,0v-10.6a8.124,8.124,0,0,1,8.124-8.124h0a8.124,8.124,0,0,1,8.124,8.124Z" transform="translate(-673.135 -225.488)" fill="#2f2e41"/>
      <path id="Path_347" data-name="Path 347" d="M847.51,305.778s3.3,6.885,2.479,8.262l6.885-3.58s-3.58-4.682-3.58-5.508Z" transform="translate(-690.98 -266.813)" fill="#ffb8b8"/>
      <path id="Path_348" data-name="Path 348" d="M855.643,327.019s-3.371-3.3-6.367-2.479-2.307,2.341-6.163,3.167l-.413,1.79a14.362,14.362,0,0,0-3.029,1.652c-.943.847-1.6,7.34-.413,12.806.779,3.593-.993,7.178-.138,8.675l15.422-1.928s1.377-1.377.551-2.2.551-6.885.551-6.885Z" transform="translate(-684.104 -281.857)" fill="#cfcce0"/>
      <path id="Path_349" data-name="Path 349" d="M715.532,544.389,715.257,551l2.478,3.3,3.029-2.754-.275-7.436Z" transform="translate(-553.081 -420.741)" fill="#ffb8b8"/>
      <path id="Path_350" data-name="Path 350" d="M991.438,648.4s1.928,3.856,2.2,4.682,4.131.551,4.131.551l1.377-3.58-4.682-4.406Z" transform="translate(-802.274 -530.256)" fill="#ffb8b8"/>
      <path id="Path_351" data-name="Path 351" d="M840.222,440.128l.688,13.632s2.2,19.553,3.029,22.857,3.855,19.277,3.855,19.277l7.436-1.1-2.2-22.307.275-4.406,4.131,6.334,15.7,16.523,6.059-4.957-15.7-18.451-4.131-16.523s.551-8.537-4.131-11.842Z" transform="translate(-685.344 -370.593)" fill="#2f2e41"/>
      <path id="Path_352" data-name="Path 352" d="M838.994,709.939s-.551-2.45-1.928-1.638-4.682,4.943-4.682,4.943-8.537,5.783-4.682,6.334,7.711-1.652,7.711-1.652a22.294,22.294,0,0,1,3.58-1.652c.551,0,5.232-1.377,5.232-2.479s-1.675-5.027-1.675-5.027S840.646,710.49,838.994,709.939Z" transform="translate(-674.891 -578.58)" fill="#2f2e41"/>
      <path id="Path_353" data-name="Path 353" d="M988.107,666.378s-1.484-2.026-2.422-.732-2.317,6.4-2.317,6.4-5.516,8.712-1.762,7.677,6.409-4.6,6.409-4.6a22.3,22.3,0,0,1,2.622-2.945c.5-.22,4.247-3.352,3.807-4.362s-3.544-3.94-3.544-3.94S989.841,666.223,988.107,666.378Z" transform="translate(-793.659 -544.36)" fill="#2f2e41"/>
      <ellipse id="Ellipse_55" data-name="Ellipse 55" cx="6.059" cy="6.059" rx="6.059" ry="6.059" transform="translate(152.537 28.914)" fill="#ffb8b8"/>
      <path id="Path_354" data-name="Path 354" d="M832.338,346.248s-3.167.964-3.993,2.341a13.794,13.794,0,0,1-3.3,3.029l1.928,7.711,3.029-3.58Z" transform="translate(-673.605 -298.745)" fill="#cfcce0"/>
      <path id="Path_355" data-name="Path 355" d="M840.47,254.522v-.145l-.173.01a8.13,8.13,0,0,0-6.987-1.4,8.094,8.094,0,0,1,3.118,1.611l-5.872.326-2.479,5.508h1.677l1.352-2.479v2.479h5.673l.385-1.928,1.071,1.928h1.115c.007.137.018.274.018.413l-1.1,10.6,5.233-2.2v-8.4A8.107,8.107,0,0,0,840.47,254.522Z" transform="translate(-675.953 -226.427)" fill="#2f2e41"/>
      <ellipse id="Ellipse_56" data-name="Ellipse 56" cx="0.688" cy="1.239" rx="0.688" ry="1.239" transform="translate(162.919 33.183)" fill="#ffb8b8"/>
      <path id="Path_356" data-name="Path 356" d="M871.287,374.83l2.826,6.971L866.4,392.6s-5.783,2.754-3.029,6.059c.943,1.132,4.614-3.425,4.957-3.855.858-1.077,10.683-10.927,10.173-12.32S877.068,375,877.068,375Z" transform="translate(-702.67 -320.846)" fill="#ffb8b8"/>
      <path id="Path_357" data-name="Path 357" d="M888.2,336.75l2.2,10.74s4.406-3.029,7.711.275l-4.131-11.842Z" transform="translate(-722.442 -290.762)" fill="#cfcce0"/>
      <rect id="Rectangle_230" data-name="Rectangle 230" width="7.16" height="5.508" transform="translate(160.172 72.167) rotate(24.133)" fill="#2f2e41"/>
      <rect id="Rectangle_231" data-name="Rectangle 231" width="0.551" height="16.376" transform="matrix(0.942, -0.336, 0.336, 0.942, 162.054, 82.019)" opacity="0.2"/>
      <path id="Path_358" data-name="Path 358" d="M730.116,350.1" transform="translate(-600.203 -301.721)" fill="#6c63ff"/>
      <path id="Path_359" data-name="Path 359" d="M645.676,350.1h1.183A1.355,1.355,0,0,1,645.676,350.1Z" transform="translate(-534.909 -301.721)" fill="#6c63ff"/>
      <path id="Path_360" data-name="Path 360" d="M659.868,337.547a15.558,15.558,0,0,1,8.987,2.845H650.893A15.555,15.555,0,0,1,659.868,337.547Z" transform="translate(-538.943 -292.017)" fill="#4070ff"/>
      <path id="Path_361" data-name="Path 361" d="M157.189,164.261a29.166,29.166,0,0,1,57.224-6.149c.353-.013.706-.027,1.063-.027a29.171,29.171,0,0,1,27.983,20.943,20.612,20.612,0,0,1,24.46,6.089H176.939a19.728,19.728,0,0,1-19.771-20.426Q157.177,164.476,157.189,164.261Z" transform="translate(-157.152 -136.742)" fill="#4070ff"/>
      <path id="Path_364" data-name="Path 364" d="M261.732,177.163h-.207V171.5a3.276,3.276,0,0,0-3.276-3.276H246.257a3.276,3.276,0,0,0-3.276,3.276v31.053a3.276,3.276,0,0,0,3.276,3.276h11.992a3.276,3.276,0,0,0,3.276-3.276V181.192h.207Z" transform="translate(-223.52 -161.088)" fill="#3f3d56"/>
      <path id="Path_365" data-name="Path 365" d="M261.464,171.985H259.9a1.162,1.162,0,0,1-1.076,1.6h-6.87a1.162,1.162,0,0,1-1.076-1.6h-1.462a2.447,2.447,0,0,0-2.447,2.447v31.008a2.447,2.447,0,0,0,2.447,2.447h12.05a2.447,2.447,0,0,0,2.447-2.447V174.432a2.447,2.447,0,0,0-2.447-2.447Z" transform="translate(-226.603 -163.994)" fill="#fff"/>
      <rect id="Rectangle_236" data-name="Rectangle 236" width="3.173" height="3.173" transform="translate(22.182 24.708)" fill="#4070ff"/>
      <g id="Repeat_Grid_4" data-name="Repeat Grid 4" transform="translate(22.182 30.244)" clip-path="url(#clip-path)">
        <g transform="translate(-31.76 -35.293)">
          <rect id="Rectangle_239" data-name="Rectangle 239" width="4.543" height="4.543" transform="translate(31.76 35.293)" fill="#4070ff"/>
        </g>
      </g>
      <rect id="Rectangle_242" data-name="Rectangle 242" width="3.173" height="3.173" transform="translate(22.182 35.78)" fill="#4070ff"/>
      <rect id="Rectangle_244" data-name="Rectangle 244" width="3.173" height="3.173" transform="translate(27.25 24.708)" fill="#4070ff"/>
      <g id="Repeat_Grid_5" data-name="Repeat Grid 5" transform="translate(27.25 30.244)" clip-path="url(#clip-path)">
        <g transform="translate(-31.76 -35.293)">
          <rect id="Rectangle_239-2" data-name="Rectangle 239" width="4.543" height="4.543" transform="translate(31.76 35.293)" fill="#4070ff"/>
        </g>
      </g>
      <rect id="Rectangle_245" data-name="Rectangle 245" width="3.173" height="3.173" transform="translate(27.25 35.779)" fill="#4070ff"/>
      <rect id="Rectangle_246" data-name="Rectangle 246" width="3.173" height="3.173" transform="translate(32.317 24.708)" fill="#4070ff"/>
      <g id="Repeat_Grid_6" data-name="Repeat Grid 6" transform="translate(32.317 30.244)" clip-path="url(#clip-path)">
        <g transform="translate(-31.76 -35.293)">
          <rect id="Rectangle_239-3" data-name="Rectangle 239" width="4.543" height="4.543" transform="translate(31.76 35.293)" fill="#4070ff"/>
        </g>
      </g>
      <rect id="Rectangle_247" data-name="Rectangle 247" width="3.173" height="3.173" transform="translate(32.317 35.779)" fill="#4070ff"/>
    </g>
    <rect id="Rectangle_243" data-name="Rectangle 243" width="0.43" height="20.002" transform="translate(133.785 412.61)" fill="#3f3d56"/>
    <ellipse id="Ellipse_57" data-name="Ellipse 57" cx="4.302" cy="4.302" rx="4.302" ry="4.302" transform="translate(129.62 405.727)" fill="#4070ff"/>
    <rect id="Rectangle_177" data-name="Rectangle 177" width="0.43" height="20.002" transform="translate(218.991 387.795)" fill="#3f3d56"/>
    <ellipse id="Ellipse_32" data-name="Ellipse 32" cx="4.302" cy="4.302" rx="4.302" ry="4.302" transform="translate(214.826 380.912)" fill="#4070ff"/>
  </g>
</svg>
