<svg xmlns="http://www.w3.org/2000/svg" width="1007.6" height="460.028" viewBox="0 0 1007.6 460.028">
  <g id="step3" transform="translate(0 -3.641)">
    <g id="Layer_1" data-name="Layer 1">
      <path id="Path_745" data-name="Path 745" d="M810.51,697.67s6.17-20.35-8.85-30.56-17.51-20.31-17.51-20.31-3.92,18.64,4,26.35S806.37,688.62,810.51,697.67Z" transform="translate(-21.4 -331.04)" fill="#bbc0e3"/>
      <line id="Line_9" data-name="Line 9" y2="177.79" transform="translate(801.29 285.06)" fill="none" stroke="#c1e6ee" stroke-miterlimit="10" stroke-width="0.85"/>
      <path id="Path_746" data-name="Path 746" d="M822.69,623s-12.84-35.27,12.64-54.7,28.9-37.5,28.9-37.5,8.71,32.49-4.48,46.84S829.1,606.6,822.69,623Z" transform="translate(-21.4 -331.04)" fill="#bbc0e3"/>
      <rect id="Rectangle_278" data-name="Rectangle 278" width="530.74" height="16.21" transform="translate(243.74 434.4)" fill="#bbc0e3"/>
      <rect id="Rectangle_279" data-name="Rectangle 279" width="113.16" height="6.68" transform="translate(532.98 18.9)" fill="#fff"/>
      <rect id="Rectangle_280" data-name="Rectangle 280" width="68.47" height="6.68" transform="translate(532.98 33.26)" fill="#fff"/>
      <rect id="Rectangle_281" data-name="Rectangle 281" width="68.47" height="6.68" transform="translate(532.98 47.3)" fill="#fff"/>
      <path id="Path_749" data-name="Path 749" d="M241.81,611.68l-4.11,7-1.68-11c-18.93-10.24-63.7-13.39-63.7-13.39,15.68,17.32,15.62,37.51,18.52,56.93l11,5.37-9.72,2a77.222,77.222,0,0,0,3.52,12.27c9.64,24.84,39.55,35.87,61.21,6.55C277.61,649.33,257.45,624.42,241.81,611.68Z" transform="translate(-21.4 -331.04)" fill="#bbc0e3"/>
      <path id="Path_750" data-name="Path 750" d="M250.88,684.32s-2.3-17.7-31-47.63" transform="translate(-21.4 -331.04)" fill="none" stroke="#fff" stroke-miterlimit="10" stroke-width="0.51"/>
      <path id="Path_751" data-name="Path 751" d="M192.55,660.5s35,11.55,70.27-22.12c0,0-4.84-10.06-6-10.74S192.55,660.5,192.55,660.5Z" transform="translate(-21.4 -331.04)" fill="#3a3f48"/>
      <rect id="Rectangle_283" data-name="Rectangle 283" width="200.58" height="21.82" transform="translate(424.87 265.7)" fill="#e5f0fd"/>
      <rect id="Rectangle_284" data-name="Rectangle 284" width="200.58" height="21.82" transform="translate(424.87 360.79)" fill="#e5f0fd"/>
      <rect id="Rectangle_286" data-name="Rectangle 286" width="14.99" height="23.1" rx="3.27" transform="translate(488.028 322.537) rotate(-89.38)" fill="none" stroke="#fff" stroke-miterlimit="10" stroke-width="0.82"/>
      <path id="Path_752" data-name="Path 752" d="M489.58,308.1l10.02,9.8,10.28-9.56" fill="none" stroke="#fff" stroke-miterlimit="10" stroke-width="0.23"/>
      <path id="Path_753" data-name="Path 753" d="M543.61,675.05c0,.9-1.48,1.62-3.28,1.6l-16.56-.18c-1.81,0-3.26-.77-3.25-1.67v-4.23c0-.9,1.48-1.61,3.29-1.6l16.56.18c1.8,0,3.26.77,3.25,1.67Z" transform="translate(-21.4 -331.04)" fill="none" stroke="#fff" stroke-miterlimit="10" stroke-width="0.58"/>
      <line id="Line_10" data-name="Line 10" x2="29.18" transform="translate(521.04 309.44)" fill="none" stroke="#fff" stroke-miterlimit="10" stroke-width="0.82"/>
      <line id="Line_11" data-name="Line 11" x2="29.18" transform="translate(521.04 319.64)" fill="none" stroke="#fff" stroke-miterlimit="10" stroke-width="0.82"/>
      <line id="Line_12" data-name="Line 12" x2="3.65" y2="3.65" transform="translate(508.39 340.15)" fill="none" stroke="#fff" stroke-miterlimit="10" stroke-width="0.23"/>
      <line id="Line_13" data-name="Line 13" x2="1.83" y2="1.83" transform="translate(539.4 341.77)" fill="none" stroke="#fff" stroke-miterlimit="10" stroke-width="0.23"/>
      <line id="Line_14" data-name="Line 14" x1="3.65" y2="3.66" transform="translate(541.05 339.94)" fill="none" stroke="#fff" stroke-miterlimit="10" stroke-width="0.23"/>
      <line id="Line_15" data-name="Line 15" x1="3.89" y2="3.89" transform="translate(508.27 340.03)" fill="none" stroke="#fff" stroke-miterlimit="10" stroke-width="0.23"/>
      <path id="Path_755" data-name="Path 755" d="M268.42,363.36l1.84,100.3h71.42l3.26-31.48,12.07,31.48h68.66l-29.88-85.92Z" fill="#ffc60a"/>
      <path id="Path_756" data-name="Path 756" d="M289.82,694.4l95.24,17.46,31.1-17.46L376.1,481.78s-.51-.34-66.77,0Z" transform="translate(-21.4 -331.04)" fill="#f289af"/>
      <path id="Path_757" data-name="Path 757" d="M361.19,373.34c31.65-21.42-6.31-20.2-6.31-20.2,19.82-35.59-13.39-8.76-13.39-8.76-37.17-24.08-15.39,8.76-15.39,8.76-36.29,0-1.35,20.45-1.35,20.45h0c-9.23,6.67-15.34,18.21-15.34,31.33,0,20.64,15.1,37.38,33.73,37.38s33.73-16.74,33.73-37.38C376.88,391.63,370.62,380,361.19,373.34Z" transform="translate(-21.4 -331.04)" fill="#3a3f48"/>
      <path id="Path_758" data-name="Path 758" d="M305.64,124.4l-6.74,26.29,46.33.91-6.74-27.2Z" fill="#f289af"/>
      <path id="Path_759" data-name="Path 759" d="M327,455.44l-.05.2h0c10.6,16.79,28.83,8.25,28.83,8.25l10.81,18.75-6.74-27.2Z" transform="translate(-21.4 -331.04)" fill="#3a3f48"/>
      <ellipse id="Ellipse_146" data-name="Ellipse 146" cx="28.94" cy="37.38" rx="28.94" ry="37.38" transform="translate(292.81 56.2)" fill="#f289af"/>
      <circle id="Ellipse_147" data-name="Ellipse 147" cx="9.24" cy="9.24" r="9.24" transform="translate(280.42 76.68)" fill="#f289af"/>
      <circle id="Ellipse_148" data-name="Ellipse 148" cx="13.81" cy="13.81" r="13.81" transform="translate(290.47 73.95)" fill="#fff" opacity="0.3"/>
      <path id="Path_760" data-name="Path 760" d="M334.15,407.89l-18.09,20.8a13.8,13.8,0,1,0,19.822-19.2L334.16,407.9Z" transform="translate(-21.4 -331.04)" fill="#fff" opacity="0.3"/>
      <circle id="Ellipse_149" data-name="Ellipse 149" cx="9.24" cy="9.24" r="9.24" transform="translate(343.13 76.68)" fill="#f289af"/>
      <circle id="Ellipse_150" data-name="Ellipse 150" cx="13.81" cy="13.81" r="13.81" transform="translate(290.47 73.95)" fill="none" stroke="#3a3f48" stroke-miterlimit="10" stroke-width="1.14"/>
      <circle id="Ellipse_151" data-name="Ellipse 151" cx="13.81" cy="13.81" r="13.81" transform="translate(324.75 73.95)" fill="#fff" opacity="0.3"/>
      <path id="Path_761" data-name="Path 761" d="M368.43,407.89l-18.09,20.8a13.8,13.8,0,1,0,19.822-19.2L368.44,407.9Z" transform="translate(-21.4 -331.04)" fill="#fff" opacity="0.3"/>
      <circle id="Ellipse_152" data-name="Ellipse 152" cx="13.81" cy="13.81" r="13.81" transform="translate(324.75 73.95)" fill="none" stroke="#3a3f48" stroke-miterlimit="10" stroke-width="1.14"/>
      <path id="Path_762" data-name="Path 762" d="M339.49,418.8s2.47-3.64,6.66,0" transform="translate(-21.4 -331.04)" fill="none" stroke="#3a3f48" stroke-miterlimit="10" stroke-width="1.14"/>
      <path id="Path_763" data-name="Path 763" d="M454.33,732a4.22,4.22,0,0,0-4.54,2.56l-8.19,19.81a4.23,4.23,0,1,0,7.81,3.23l8.18-19.81a4.22,4.22,0,0,0-3.26-5.79Z" transform="translate(-21.4 -331.04)" fill="#f289af"/>
      <path id="Path_764" data-name="Path 764" d="M484.13,735a4.05,4.05,0,0,0-1.51,0,4.21,4.21,0,0,0-3.27,5l4.74,22.8a4.223,4.223,0,0,0,8.27-1.72l-4.74-22.8A4.22,4.22,0,0,0,484.13,735Z" transform="translate(-21.4 -331.04)" fill="#f289af"/>
      <path id="Path_765" data-name="Path 765" d="M476.83,738a4.23,4.23,0,0,0-4.76,5.11L477.49,767a4.225,4.225,0,0,0,8.24-1.87l-5.43-23.91a4.22,4.22,0,0,0-3.47-3.22Z" transform="translate(-21.4 -331.04)" fill="#f289af"/>
      <path id="Path_766" data-name="Path 766" d="M470.39,740.94a4.312,4.312,0,0,0-1.43,0,4.22,4.22,0,0,0-3.37,4.93l5,26.69a4.222,4.222,0,0,0,8.3-1.55l-5-26.7A4.23,4.23,0,0,0,470.39,740.94Z" transform="translate(-21.4 -331.04)" fill="#f289af"/>
      <path id="Path_767" data-name="Path 767" d="M462.15,742.6a4.049,4.049,0,0,0-1.47,0,4.23,4.23,0,0,0-3.31,5l4.49,22.55a4.23,4.23,0,1,0,8.29-1.65l-4.5-22.5A4.22,4.22,0,0,0,462.15,742.6Z" transform="translate(-21.4 -331.04)" fill="#f289af"/>
      <path id="Path_768" data-name="Path 768" d="M449.6,746.08s6.38-2.45,10.86,5.16,27.85-9.66,27.85-9.66-1.71-28.73-4.22-31.54-32.43,4.12-32.43,4.12,2.56,9.68-3.12,23.41S449.6,746.08,449.6,746.08Z" transform="translate(-21.4 -331.04)" fill="#f289af"/>
      <path id="Path_769" data-name="Path 769" d="M470.14,770.2c-.46-1.86-.87-3.74-1.26-5.61s-.75-3.75-1.12-5.63l-1-5.65c-.31-1.89-.61-3.78-.86-5.68.47,1.86.87,3.73,1.26,5.6l1.12,5.63c.33,1.89.69,3.77,1,5.66S469.9,768.29,470.14,770.2Z" transform="translate(-21.4 -331.04)" fill="#3a3f48"/>
      <path id="Path_770" data-name="Path 770" d="M478.17,768.13c-.46-1.86-.87-3.73-1.26-5.6s-.74-3.76-1.12-5.63l-1-5.66c-.31-1.88-.61-3.77-.85-5.68.46,1.86.86,3.74,1.26,5.61l1.11,5.63c.33,1.88.69,3.76,1,5.65S477.93,766.23,478.17,768.13Z" transform="translate(-21.4 -331.04)" fill="#3a3f48"/>
      <path id="Path_771" data-name="Path 771" d="M485.5,764.76c-.46-1.86-.86-3.73-1.25-5.6s-.75-3.76-1.12-5.63l-1-5.66c-.31-1.89-.61-3.78-.85-5.68.46,1.86.87,3.73,1.26,5.61l1.12,5.63c.33,1.88.68,3.76,1,5.65S485.26,762.86,485.5,764.76Z" transform="translate(-21.4 -331.04)" fill="#3a3f48"/>
      <path id="Path_772" data-name="Path 772" d="M149.16,553.44c5.66-15.8-1.65-9.54-1.65-9.54s-7.06,3.1-12.54-5.23-30.89,12.4-30.89,12.4,2.58,23.95,5.21,32.55h0c.14.46,3.22,14.56,13.21,22.53,8.24,6.57,19.14-17.14,22.7-25.65l1.72-.48a20.545,20.545,0,0,1-.54-2.45h0C145.72,573.53,145.11,564.78,149.16,553.44Z" transform="translate(-21.4 -331.04)" fill="#f289af"/>
      <path id="Path_773" data-name="Path 773" d="M142.94,560a4.75,4.75,0,0,0,5-3.14l8.16-22.79a4.779,4.779,0,0,0-9-3.22l-8.16,22.8a4.76,4.76,0,0,0,4,6.35Z" transform="translate(-21.4 -331.04)" fill="#f289af"/>
      <path id="Path_774" data-name="Path 774" d="M109.16,558.32a4.869,4.869,0,0,0,1.69-.12,4.78,4.78,0,0,0,3.42-5.82l-6.58-25.46a4.771,4.771,0,0,0-9.24,2.38L105,554.77a4.76,4.76,0,0,0,4.16,3.55Z" transform="translate(-21.4 -331.04)" fill="#f289af"/>
      <path id="Path_775" data-name="Path 775" d="M117.23,554.55a4.721,4.721,0,0,0,1.78-.15,4.77,4.77,0,0,0,3.31-5.87l-7.41-26.69a4.775,4.775,0,0,0-9.2,2.56l7.42,26.68A4.78,4.78,0,0,0,117.23,554.55Z" transform="translate(-21.4 -331.04)" fill="#f289af"/>
      <path id="Path_776" data-name="Path 776" d="M124.34,550.82a4.581,4.581,0,0,0,1.6-.1,4.78,4.78,0,0,0,3.54-5.75l-7.09-29.84a4.77,4.77,0,1,0-9.28,2.2l7.09,29.85A4.77,4.77,0,0,0,124.34,550.82Z" transform="translate(-21.4 -331.04)" fill="#f289af"/>
      <path id="Path_777" data-name="Path 777" d="M133.53,548.51a4.681,4.681,0,0,0,1.66-.12,4.76,4.76,0,0,0,3.47-5.78l-6.29-25.21a4.773,4.773,0,1,0-9.26,2.32l6.3,25.2a4.78,4.78,0,0,0,4.12,3.59Z" transform="translate(-21.4 -331.04)" fill="#f289af"/>
      <path id="Path_778" data-name="Path 778" d="M123,517.8c.62,2.08,1.18,4.17,1.72,6.26s1,4.19,1.57,6.29,1,4.21,1.43,6.32.89,4.24,1.27,6.37c-.62-2.08-1.18-4.17-1.73-6.26s-1-4.19-1.56-6.29-1-4.21-1.43-6.32S123.41,519.94,123,517.8Z" transform="translate(-21.4 -331.04)" fill="#3a3f48"/>
      <path id="Path_779" data-name="Path 779" d="M114.08,520.57c.62,2.07,1.18,4.16,1.72,6.25s1,4.2,1.57,6.29,1,4.21,1.43,6.33.89,4.23,1.27,6.36c-.63-2.07-1.18-4.16-1.73-6.25s-1-4.2-1.56-6.3-1-4.21-1.43-6.32S114.45,522.7,114.08,520.57Z" transform="translate(-21.4 -331.04)" fill="#3a3f48"/>
      <path id="Path_780" data-name="Path 780" d="M106,524.77c.63,2.07,1.18,4.16,1.73,6.25s1,4.2,1.57,6.3,1,4.21,1.43,6.32.89,4.23,1.26,6.36c-.62-2.07-1.17-4.16-1.72-6.25s-1-4.2-1.57-6.29-1-4.21-1.43-6.33S106.36,526.9,106,524.77Z" transform="translate(-21.4 -331.04)" fill="#3a3f48"/>
      <path id="Path_781" data-name="Path 781" d="M376.1,481.78c-6,15.58-17.44,24.78-30,24.78-15.37,0-28.45-13.2-36.82-24.78L289.82,694.4l95.24,17.46,31.1-17.46Z" transform="translate(-21.4 -331.04)" fill="#fff"/>
      <path id="Path_782" data-name="Path 782" d="M376.1,481.78c-6,15.58-17.44,24.78-30,24.78-15.37,0-28.45-13.2-36.82-24.78l-1.23,13.41c5.31,7.7,14,17,26.4,20.49,15.13,4.3,33.55-1.89,44.93-16.23Z" transform="translate(-21.4 -331.04)" fill="#f9cf63"/>
      <path id="Path_783" data-name="Path 783" d="M395.79,377.74,370.7,390.41l-1.56-12.67Z" fill="#3a3f48"/>
      <path id="Path_784" data-name="Path 784" d="M309.33,481.78s-54.95,7.71-67.79,63.17-52.38,75.5-91.93,28.76l-28.76,34.41s81.15,113.5,151,10.79l10.79,75.49h62.65Z" transform="translate(-21.4 -331.04)" fill="#1479ec"/>
      <path id="Path_785" data-name="Path 785" d="M376.1,481.78l9.24,237.28,31.85-10.27L411,599.65l31.85,119.41,46.73-3.6S469.57,477.67,376.1,481.78Z" transform="translate(-21.4 -331.04)" fill="#1479ec"/>
      <path id="Path_786" data-name="Path 786" d="M764.52,413.24H648.76l-6.12,50.42H773.73Z" fill="#1479ec"/>
      <path id="Path_787" data-name="Path 787" d="M901.68,518.64c3-14.45,5.62-6.41,5.62-6.41s3.88,5.57,11.81,1.83,17.51,23.47,17.51,23.47-12.92,16.8-18.83,22.05h0c-.32.28-9.09,9.46-20.25,10.86-9.2,1.16-6.51-21.65-5.28-29.66l-1.08-1.15a16.913,16.913,0,0,0,1.53-1.6h0C895.06,535.31,899.54,529,901.68,518.64Z" transform="translate(-21.4 -331.04)" fill="#f289af"/>
      <path id="Path_788" data-name="Path 788" d="M903.34,526.45a4.2,4.2,0,0,1-2.31-4.64L905.35,501a4.2,4.2,0,0,1,8.22,1.71l-4.32,20.85a4.2,4.2,0,0,1-5,3.26A4.075,4.075,0,0,1,903.34,526.45Z" transform="translate(-21.4 -331.04)" fill="#f289af"/>
      <path id="Path_789" data-name="Path 789" d="M929.49,540.65a4.12,4.12,0,0,1-1.22-.88,4.19,4.19,0,0,1,.1-5.93L945,517.74a4.2,4.2,0,0,1,5.84,6l-16.62,16.1a4.22,4.22,0,0,1-4.73.81Z" transform="translate(-21.4 -331.04)" fill="#f289af"/>
      <path id="Path_790" data-name="Path 790" d="M925.16,534.11a4.19,4.19,0,0,1-1.07-6.86l17.8-16.63a4.2,4.2,0,1,1,5.73,6.13l-17.8,16.64a4.18,4.18,0,0,1-4.66.72Z" transform="translate(-21.4 -331.04)" fill="#f289af"/>
      <path id="Path_791" data-name="Path 791" d="M921.53,528.05a3.929,3.929,0,0,1-1.16-.81,4.2,4.2,0,0,1,0-5.93l19-19.17a4.211,4.211,0,0,1,6,5.91l-19,19.17a4.18,4.18,0,0,1-4.84.83Z" transform="translate(-21.4 -331.04)" fill="#f289af"/>
      <path id="Path_792" data-name="Path 792" d="M915.68,522.1a4.2,4.2,0,0,1-1.14-6.78l16.28-16a4.2,4.2,0,0,1,5.89,6l-16.28,16A4.2,4.2,0,0,1,915.68,522.1Z" transform="translate(-21.4 -331.04)" fill="#f289af"/>
      <path id="Path_793" data-name="Path 793" d="M937.64,503.86c-1.26,1.43-2.56,2.82-3.87,4.2s-2.64,2.73-4,4.09l-4.06,4c-1.37,1.32-2.74,2.63-4.16,3.9,1.26-1.43,2.56-2.81,3.87-4.19l4-4.1c1.36-1.33,2.69-2.68,4.06-4S936.23,505.13,937.64,503.86Z" transform="translate(-21.4 -331.04)" fill="#3a3f48"/>
      <path id="Path_794" data-name="Path 794" d="M943.1,510c-1.26,1.43-2.56,2.82-3.87,4.2s-2.65,2.72-4,4.09l-4.06,4c-1.37,1.32-2.75,2.63-4.17,3.9,1.26-1.43,2.57-2.81,3.87-4.19l4-4.1c1.35-1.33,2.69-2.69,4.06-4S941.68,511.31,943.1,510Z" transform="translate(-21.4 -331.04)" fill="#3a3f48"/>
      <path id="Path_795" data-name="Path 795" d="M947.25,516.91c-1.26,1.42-2.56,2.81-3.87,4.19s-2.65,2.73-4,4.1l-4.06,4c-1.37,1.32-2.75,2.64-4.17,3.91,1.26-1.43,2.57-2.82,3.87-4.2l4-4.09c1.35-1.34,2.69-2.69,4.06-4S945.83,518.18,947.25,516.91Z" transform="translate(-21.4 -331.04)" fill="#3a3f48"/>
      <path id="Path_796" data-name="Path 796" d="M639.6,748.84c5.63,13.3-1,8.28-1,8.28s-6.22-2.32-10.52,5.11S601,753.08,601,753.08s1-20.71,2.88-28.23h0c.1-.4,2-12.68,10.25-20,6.77-6.06,17.29,13.8,20.77,20.93l1.5.33a17.167,17.167,0,0,0-.34,2.13h0C635.65,731.74,635.55,739.29,639.6,748.84Z" transform="translate(-21.4 -331.04)" fill="#f289af"/>
      <path id="Path_797" data-name="Path 797" d="M633.92,743.47a4.11,4.11,0,0,1,4.44,2.45l8.13,19.2a4.1,4.1,0,0,1-7.56,3.2l-8.13-19.19a4.11,4.11,0,0,1,2.18-5.39A4,4,0,0,1,633.92,743.47Z" transform="translate(-21.4 -331.04)" fill="#f289af"/>
      <path id="Path_798" data-name="Path 798" d="M605,746.6a4.278,4.278,0,0,1,1.47,0,4.1,4.1,0,0,1,3.22,4.83l-4.41,22.21a4.11,4.11,0,1,1-8.06-1.6l4.42-22.21A4.11,4.11,0,0,1,605,746.6Z" transform="translate(-21.4 -331.04)" fill="#f289af"/>
      <path id="Path_799" data-name="Path 799" d="M612.09,749.45a4.16,4.16,0,0,1,1.53,0,4.1,4.1,0,0,1,3.14,4.89l-5.07,23.3a4.1,4.1,0,1,1-8-1.74l5.07-23.31a4.12,4.12,0,0,1,3.33-3.14Z" transform="translate(-21.4 -331.04)" fill="#f289af"/>
      <path id="Path_800" data-name="Path 800" d="M618.38,752.31a3.772,3.772,0,0,1,1.38,0,4.1,4.1,0,0,1,3.33,4.76l-4.63,26a4.11,4.11,0,0,1-8.09-1.44l4.63-26a4.1,4.1,0,0,1,3.38-3.32Z" transform="translate(-21.4 -331.04)" fill="#f289af"/>
      <path id="Path_801" data-name="Path 801" d="M626.4,753.85a3.831,3.831,0,0,1,1.43,0,4.11,4.11,0,0,1,3.27,4.8l-4.18,22a4.11,4.11,0,0,1-8.07-1.53l4.18-22a4.1,4.1,0,0,1,3.37-3.27Z" transform="translate(-21.4 -331.04)" fill="#f289af"/>
      <path id="Path_802" data-name="Path 802" d="M618.87,780.76c.44-3.71,1.08-7.37,1.7-11l1-5.49c.37-1.82.74-3.65,1.18-5.46-.22,1.85-.5,3.69-.78,5.53l-.92,5.51C620.41,773.47,619.74,777.13,618.87,780.76Z" transform="translate(-21.4 -331.04)" fill="#3a3f48"/>
      <path id="Path_803" data-name="Path 803" d="M611,778.82c.44-3.7,1.08-7.37,1.7-11l1-5.49c.37-1.82.74-3.65,1.18-5.46-.22,1.85-.5,3.69-.78,5.53l-.92,5.51C612.58,771.53,611.91,775.19,611,778.82Z" transform="translate(-21.4 -331.04)" fill="#3a3f48"/>
      <path id="Path_804" data-name="Path 804" d="M603.88,775.6c.44-3.7,1.08-7.37,1.7-11l1-5.48c.36-1.83.74-3.65,1.17-5.46-.21,1.85-.49,3.69-.77,5.53l-.92,5.5C605.41,768.31,604.75,772,603.88,775.6Z" transform="translate(-21.4 -331.04)" fill="#3a3f48"/>
      <path id="Path_805" data-name="Path 805" d="M683.17,460.6v33l34.7-2.9-1.48-24.93S682.71,453.06,683.17,460.6Z" transform="translate(-21.4 -331.04)" fill="#f289af"/>
      <path id="Path_806" data-name="Path 806" d="M686.79,473.84c8,8.64,25.71,4.51,25.71,4.51l5.37,12.33L716.64,470C705.09,471,686.79,473.84,686.79,473.84Z" transform="translate(-21.4 -331.04)" fill="#3a3f48"/>
      <circle id="Ellipse_153" data-name="Ellipse 153" cx="29.27" cy="29.27" r="29.27" transform="translate(648.09 86.81)" fill="#f289af"/>
      <path id="Path_807" data-name="Path 807" d="M669.5,447.73c-.34-16.17,12.67-20.87,28.84-21.21s29.35,3.83,29.69,20c0,.84,0,1.67-.06,2.49a34.569,34.569,0,0,0,5.17-18.95c-.4-19.17-22.81-34.26-35.43-34s-34.4,16.26-34,35.44a34.509,34.509,0,0,0,5.95,18.72C669.57,449.39,669.51,448.57,669.5,447.73Z" transform="translate(-21.4 -331.04)" fill="#3a3f48"/>
      <circle id="Ellipse_154" data-name="Ellipse 154" cx="7.53" cy="7.53" r="7.53" transform="translate(640.62 111.65)" fill="#f289af"/>
      <circle id="Ellipse_155" data-name="Ellipse 155" cx="9.48" cy="9.48" r="9.48" transform="translate(653.73 109.39)" fill="#3a3f48"/>
      <circle id="Ellipse_156" data-name="Ellipse 156" cx="7.53" cy="7.53" r="7.53" transform="translate(699.15 110.44)" fill="#f289af"/>
      <circle id="Ellipse_157" data-name="Ellipse 157" cx="9.48" cy="9.48" r="9.48" transform="translate(682.91 108.78)" fill="#3a3f48"/>
      <path id="Path_808" data-name="Path 808" d="M693.2,449.73s6.06-5.11,12-.25" transform="translate(-21.4 -331.04)" fill="none" stroke="#3a3f48" stroke-miterlimit="10" stroke-width="0.54"/>
      <path id="Path_809" data-name="Path 809" d="M692,455.87a9.48,9.48,0,0,0-1.4-13.33l-11.94,14.73a9.48,9.48,0,0,0,13.34-1.4Z" transform="translate(-21.4 -331.04)" fill="#fff" opacity="0.3"/>
      <path id="Path_810" data-name="Path 810" d="M721.16,455.27a9.47,9.47,0,0,0-1.4-13.33l-11.93,14.73a9.48,9.48,0,0,0,13.33-1.4Z" transform="translate(-21.4 -331.04)" fill="#fff" opacity="0.3"/>
      <path id="Path_811" data-name="Path 811" d="M710.66,490s-47.58,1.59-72.74,23.16-38,210.57-38,210.57l41.6,5.14L658,628.19,665.14,746H792.5l-18-117.8s49.47,39.2,93.64-5,52.73-62.31,52.73-62.31l-31.5-25.09s-71.9,103.49-111.62,9C777.78,544.82,757.58,482.84,710.66,490Z" transform="translate(-21.4 -331.04)" fill="#f289af"/>
      <path id="Path_812" data-name="Path 812" d="M713.19,508.39a13.33,13.33,0,0,1-21,0h-1V544.1h46.63V508.39Z" transform="translate(-21.4 -331.04)" fill="#fff"/>
      <path id="Path_813" data-name="Path 813" d="M889.4,535.82s-71.9,103.49-111.62,9c0,0-16.13-49.46-53-54.91-2,4-5.69,11.61-9,19.73a8.94,8.94,0,0,1-6.17,5.56l-4.27,13.6L695.39,513c-1.3-.56-2.09-1-2.09-1l-11.14-18.22c-14.73,3.17-32.09,8.92-44.24,19.33-25.17,21.58-38,210.57-38,210.57l41.6,5.14L658,628.19,665.14,746H792.5l-18-117.8s49.47,39.2,93.64-5,52.73-62.31,52.73-62.31Z" transform="translate(-21.4 -331.04)" fill="#ffc60a"/>
      <path id="Path_814" data-name="Path 814" d="M725.31,490a44.829,44.829,0,0,0-7.69-.57L705.26,528.8l-22-35.22c-2.73.57-5.56,1.23-8.43,2l30.47,48.53Z" transform="translate(-21.4 -331.04)" fill="#fff"/>
      <path id="Path_815" data-name="Path 815" d="M656.66,540.19a5.052,5.052,0,1,1-7.38-6.9" transform="translate(-21.4 -331.04)" fill="none" stroke="#231f20" stroke-miterlimit="10" stroke-width="0.9"/>
      <path id="Path_816" data-name="Path 816" d="M641.77,526.53a5.052,5.052,0,0,1,7.38,6.9" transform="translate(-21.4 -331.04)" fill="none" stroke="#231f20" stroke-miterlimit="10" stroke-width="0.9"/>
      <path id="Path_817" data-name="Path 817" d="M707.49,583.68a5.048,5.048,0,1,1-7.37-6.9" transform="translate(-21.4 -331.04)" fill="none" stroke="#231f20" stroke-miterlimit="10" stroke-width="0.9"/>
      <path id="Path_818" data-name="Path 818" d="M692.61,570a5.048,5.048,0,0,1,7.37,6.9" transform="translate(-21.4 -331.04)" fill="none" stroke="#231f20" stroke-miterlimit="10" stroke-width="0.9"/>
      <path id="Path_819" data-name="Path 819" d="M671.49,580.85a5.052,5.052,0,1,1-7.38-6.9" transform="translate(-21.4 -331.04)" fill="none" stroke="#231f20" stroke-miterlimit="10" stroke-width="0.9"/>
      <path id="Path_820" data-name="Path 820" d="M656.6,567.19a5.062,5.062,0,1,1,7.4,6.91" transform="translate(-21.4 -331.04)" fill="none" stroke="#231f20" stroke-miterlimit="10" stroke-width="0.9"/>
      <path id="Path_821" data-name="Path 821" d="M637.91,594.92a5.048,5.048,0,1,1-7.37-6.9" transform="translate(-21.4 -331.04)" fill="none" stroke="#231f20" stroke-miterlimit="10" stroke-width="0.9"/>
      <path id="Path_822" data-name="Path 822" d="M623,581.26a5.051,5.051,0,0,1,7.37,6.91" transform="translate(-21.4 -331.04)" fill="none" stroke="#231f20" stroke-miterlimit="10" stroke-width="0.9"/>
      <path id="Path_823" data-name="Path 823" d="M671.49,626.89a5.06,5.06,0,0,1-7.38-6.91" transform="translate(-21.4 -331.04)" fill="none" stroke="#231f20" stroke-miterlimit="10" stroke-width="0.9"/>
      <path id="Path_824" data-name="Path 824" d="M656.6,613.23a5.052,5.052,0,0,1,7.38,6.9" transform="translate(-21.4 -331.04)" fill="none" stroke="#231f20" stroke-miterlimit="10" stroke-width="0.9"/>
      <path id="Path_825" data-name="Path 825" d="M632.42,642.58a5.052,5.052,0,1,1-7.38-6.9" transform="translate(-21.4 -331.04)" fill="none" stroke="#231f20" stroke-miterlimit="10" stroke-width="0.9"/>
      <path id="Path_826" data-name="Path 826" d="M617.53,628.92a5.052,5.052,0,0,1,7.38,6.9" transform="translate(-21.4 -331.04)" fill="none" stroke="#231f20" stroke-miterlimit="10" stroke-width="0.9"/>
      <path id="Path_827" data-name="Path 827" d="M644.06,677.82a5.06,5.06,0,0,1-7.38-6.91" transform="translate(-21.4 -331.04)" fill="none" stroke="#231f20" stroke-miterlimit="10" stroke-width="0.9"/>
      <path id="Path_828" data-name="Path 828" d="M629.17,664.16a5.052,5.052,0,0,1,7.38,6.9" transform="translate(-21.4 -331.04)" fill="none" stroke="#231f20" stroke-miterlimit="10" stroke-width="0.9"/>
      <path id="Path_829" data-name="Path 829" d="M624.3,707.09a5.048,5.048,0,0,1-7.37-6.9" transform="translate(-21.4 -331.04)" fill="none" stroke="#231f20" stroke-miterlimit="10" stroke-width="0.9"/>
      <path id="Path_830" data-name="Path 830" d="M609.42,693.44a5.048,5.048,0,0,1,7.37,6.9" transform="translate(-21.4 -331.04)" fill="none" stroke="#231f20" stroke-miterlimit="10" stroke-width="0.9"/>
      <path id="Path_831" data-name="Path 831" d="M711.86,627a5.048,5.048,0,1,1-7.37-6.9" transform="translate(-21.4 -331.04)" fill="none" stroke="#231f20" stroke-miterlimit="10" stroke-width="0.9"/>
      <path id="Path_832" data-name="Path 832" d="M697,613.3a5.048,5.048,0,0,1,7.37,6.9" transform="translate(-21.4 -331.04)" fill="none" stroke="#231f20" stroke-miterlimit="10" stroke-width="0.9"/>
      <path id="Path_833" data-name="Path 833" d="M682.23,672.77a5.052,5.052,0,0,1-7.38-6.9" transform="translate(-21.4 -331.04)" fill="none" stroke="#231f20" stroke-miterlimit="10" stroke-width="0.9"/>
      <path id="Path_834" data-name="Path 834" d="M667.35,659.11a5.048,5.048,0,0,1,7.37,6.9" transform="translate(-21.4 -331.04)" fill="none" stroke="#231f20" stroke-miterlimit="10" stroke-width="0.9"/>
      <path id="Path_835" data-name="Path 835" d="M718,672.84a5.052,5.052,0,1,1-7.38-6.9" transform="translate(-21.4 -331.04)" fill="none" stroke="#231f20" stroke-miterlimit="10" stroke-width="0.9"/>
      <path id="Path_836" data-name="Path 836" d="M703.12,659.18a5.06,5.06,0,0,1,7.38,6.91" transform="translate(-21.4 -331.04)" fill="none" stroke="#231f20" stroke-miterlimit="10" stroke-width="0.9"/>
      <path id="Path_837" data-name="Path 837" d="M683.52,720.49a5.048,5.048,0,0,1-7.37-6.9" transform="translate(-21.4 -331.04)" fill="none" stroke="#231f20" stroke-miterlimit="10" stroke-width="0.9"/>
      <path id="Path_838" data-name="Path 838" d="M668.64,706.83a5.052,5.052,0,1,1,7.38,6.9" transform="translate(-21.4 -331.04)" fill="none" stroke="#231f20" stroke-miterlimit="10" stroke-width="0.9"/>
      <path id="Path_839" data-name="Path 839" d="M716.71,714.38a5.048,5.048,0,0,1-7.37-6.9" transform="translate(-21.4 -331.04)" fill="none" stroke="#231f20" stroke-miterlimit="10" stroke-width="0.9"/>
      <path id="Path_840" data-name="Path 840" d="M701.83,700.72a5.051,5.051,0,1,1,7.37,6.91" transform="translate(-21.4 -331.04)" fill="none" stroke="#231f20" stroke-miterlimit="10" stroke-width="0.9"/>
      <path id="Path_841" data-name="Path 841" d="M752.65,738.44a5.051,5.051,0,0,1-7.37-6.91" transform="translate(-21.4 -331.04)" fill="none" stroke="#231f20" stroke-miterlimit="10" stroke-width="0.9"/>
      <path id="Path_842" data-name="Path 842" d="M737.77,724.78a5.052,5.052,0,0,1,7.38,6.9" transform="translate(-21.4 -331.04)" fill="none" stroke="#231f20" stroke-miterlimit="10" stroke-width="0.9"/>
      <path id="Path_843" data-name="Path 843" d="M755.73,702.28a5.052,5.052,0,0,1-7.38-6.9" transform="translate(-21.4 -331.04)" fill="none" stroke="#231f20" stroke-miterlimit="10" stroke-width="0.9"/>
      <path id="Path_844" data-name="Path 844" d="M740.84,688.62a5.052,5.052,0,0,1,7.38,6.9" transform="translate(-21.4 -331.04)" fill="none" stroke="#231f20" stroke-miterlimit="10" stroke-width="0.9"/>
      <path id="Path_845" data-name="Path 845" d="M777.31,675.8a5.048,5.048,0,1,1-7.37-6.9" transform="translate(-21.4 -331.04)" fill="none" stroke="#231f20" stroke-miterlimit="10" stroke-width="0.9"/>
      <path id="Path_846" data-name="Path 846" d="M762.43,662.14a5.051,5.051,0,1,1,7.37,6.91" transform="translate(-21.4 -331.04)" fill="none" stroke="#231f20" stroke-miterlimit="10" stroke-width="0.9"/>
      <path id="Path_847" data-name="Path 847" d="M745.21,651a5.048,5.048,0,0,1-7.37-6.9" transform="translate(-21.4 -331.04)" fill="none" stroke="#231f20" stroke-miterlimit="10" stroke-width="0.9"/>
      <path id="Path_848" data-name="Path 848" d="M730.33,637.35a5.048,5.048,0,0,1,7.37,6.9" transform="translate(-21.4 -331.04)" fill="none" stroke="#231f20" stroke-miterlimit="10" stroke-width="0.9"/>
      <path id="Path_849" data-name="Path 849" d="M763.17,624.53a5.052,5.052,0,1,1-7.38-6.9" transform="translate(-21.4 -331.04)" fill="none" stroke="#231f20" stroke-miterlimit="10" stroke-width="0.9"/>
      <path id="Path_850" data-name="Path 850" d="M748.28,610.87a5.052,5.052,0,1,1,7.38,6.9" transform="translate(-21.4 -331.04)" fill="none" stroke="#231f20" stroke-miterlimit="10" stroke-width="0.9"/>
      <path id="Path_851" data-name="Path 851" d="M743.92,583.68a5.052,5.052,0,1,1-7.38-6.9" transform="translate(-21.4 -331.04)" fill="none" stroke="#231f20" stroke-miterlimit="10" stroke-width="0.9"/>
      <path id="Path_852" data-name="Path 852" d="M729,570a5.052,5.052,0,1,1,7.38,6.9" transform="translate(-21.4 -331.04)" fill="none" stroke="#231f20" stroke-miterlimit="10" stroke-width="0.9"/>
      <path id="Path_853" data-name="Path 853" d="M767.54,559.35a5.052,5.052,0,1,1-7.38-6.9" transform="translate(-21.4 -331.04)" fill="none" stroke="#231f20" stroke-miterlimit="10" stroke-width="0.9"/>
      <path id="Path_854" data-name="Path 854" d="M752.65,545.69A5.06,5.06,0,0,1,760,552.6" transform="translate(-21.4 -331.04)" fill="none" stroke="#231f20" stroke-miterlimit="10" stroke-width="0.9"/>
      <path id="Path_855" data-name="Path 855" d="M800.67,589.28a5.048,5.048,0,1,1-7.37-6.9" transform="translate(-21.4 -331.04)" fill="none" stroke="#231f20" stroke-miterlimit="10" stroke-width="0.9"/>
      <path id="Path_856" data-name="Path 856" d="M785.79,575.62a5.06,5.06,0,0,1,7.38,6.91" transform="translate(-21.4 -331.04)" fill="none" stroke="#231f20" stroke-miterlimit="10" stroke-width="0.9"/>
      <path id="Path_857" data-name="Path 857" d="M797.6,621.35a5.048,5.048,0,1,1-7.37-6.9" transform="translate(-21.4 -331.04)" fill="none" stroke="#231f20" stroke-miterlimit="10" stroke-width="0.9"/>
      <path id="Path_858" data-name="Path 858" d="M782.72,607.69a5.048,5.048,0,0,1,7.37,6.9" transform="translate(-21.4 -331.04)" fill="none" stroke="#231f20" stroke-miterlimit="10" stroke-width="0.9"/>
      <path id="Path_859" data-name="Path 859" d="M840.18,606.14a5.048,5.048,0,1,1-7.37-6.9" transform="translate(-21.4 -331.04)" fill="none" stroke="#231f20" stroke-miterlimit="10" stroke-width="0.9"/>
      <path id="Path_860" data-name="Path 860" d="M825.3,592.48a5.048,5.048,0,0,1,7.37,6.9" transform="translate(-21.4 -331.04)" fill="none" stroke="#231f20" stroke-miterlimit="10" stroke-width="0.9"/>
      <path id="Path_861" data-name="Path 861" d="M883.25,604.49a5.048,5.048,0,1,1-7.37-6.9" transform="translate(-21.4 -331.04)" fill="none" stroke="#231f20" stroke-miterlimit="10" stroke-width="0.9"/>
      <path id="Path_862" data-name="Path 862" d="M868.37,590.83a5.051,5.051,0,1,1,7.37,6.91" transform="translate(-21.4 -331.04)" fill="none" stroke="#231f20" stroke-miterlimit="10" stroke-width="0.9"/>
      <path id="Path_863" data-name="Path 863" d="M898.37,561.23a5.052,5.052,0,1,1-7.38-6.9" transform="translate(-21.4 -331.04)" fill="none" stroke="#231f20" stroke-miterlimit="10" stroke-width="0.9"/>
      <path id="Path_864" data-name="Path 864" d="M883.49,547.57a5.048,5.048,0,0,1,7.37,6.9" transform="translate(-21.4 -331.04)" fill="none" stroke="#231f20" stroke-miterlimit="10" stroke-width="0.9"/>
      <path id="Path_865" data-name="Path 865" d="M740.84,527.49a5.048,5.048,0,1,1-7.37-6.9" transform="translate(-21.4 -331.04)" fill="none" stroke="#231f20" stroke-miterlimit="10" stroke-width="0.9"/>
      <path id="Path_866" data-name="Path 866" d="M726,513.83a5.052,5.052,0,0,1,7.38,6.9" transform="translate(-21.4 -331.04)" fill="none" stroke="#231f20" stroke-miterlimit="10" stroke-width="0.9"/>
      <path id="Path_867" data-name="Path 867" d="M695.52,548.62a5.048,5.048,0,1,1-7.37-6.9" transform="translate(-21.4 -331.04)" fill="none" stroke="#231f20" stroke-miterlimit="10" stroke-width="0.9"/>
      <path id="Path_868" data-name="Path 868" d="M680.64,535a5.052,5.052,0,1,1,7.38,6.9" transform="translate(-21.4 -331.04)" fill="none" stroke="#231f20" stroke-miterlimit="10" stroke-width="0.9"/>
      <path id="Path_869" data-name="Path 869" d="M774.53,628.19s-8.41-17.64-9.44-17.64,9.4,16.87,12.22,35.87Z" transform="translate(-21.4 -331.04)" fill="#3a3f48"/>
      <path id="Path_870" data-name="Path 870" d="M271.84,618.91a126.8,126.8,0,0,0,6.42-21.12s-6,23.74-4.91,31.69Z" transform="translate(-21.4 -331.04)" fill="#3a3f48"/>
      <path id="Path_871" data-name="Path 871" d="M252.62,679.57s-4.74,2-4.74,18.77,2.37,96.36,2.37,96.36" transform="translate(-21.4 -331.04)" fill="none" stroke="#c1e6ee" stroke-miterlimit="10" stroke-width="0.66"/>
      <path id="Path_872" data-name="Path 872" d="M255,679.57s-4.74,2-4.74,18.77V794.7" transform="translate(-21.4 -331.04)" fill="none" stroke="#c1e6ee" stroke-miterlimit="10" stroke-width="0.66"/>
      <path id="Path_873" data-name="Path 873" d="M330.1,715.12s-26.82-4.28-39.84,3.3V708.14S322.75,706.05,330.1,715.12Z" transform="translate(-21.4 -331.04)" fill="#3a3f48"/>
      <path id="Path_874" data-name="Path 874" d="M249.54,681.91c-17.76-23.28-40.69,6.72-40.69,6.72Z" transform="translate(-21.4 -331.04)" fill="#3a3f48"/>
      <path id="Path_875" data-name="Path 875" d="M249.54,681.91s5.75-10.76,13.28-14.87l-10.76,19.6-3.36-4.59Z" transform="translate(-21.4 -331.04)" fill="#3a3f48"/>
      <path id="Path_876" data-name="Path 876" d="M304.58,670.86l-4,4.18,7.84-1c10.73,11,21.64,41.07,21.64,41.07-14.94-7.36-28.77-3.37-42.67-1.57L281.6,707l.53,7.07a55.428,55.428,0,0,1-9.11,0c-18.92-1.75-32.33-20.11-16.46-40.7C271.76,653.68,292.79,662.63,304.58,670.86Z" transform="translate(-21.4 -331.04)" fill="#e5f0fd"/>
      <path id="Path_877" data-name="Path 877" d="M253,678.85s12.59-1.88,38.72,11.92" transform="translate(-21.4 -331.04)" fill="none" stroke="#fff" stroke-miterlimit="10" stroke-width="0.37"/>
      <path id="Path_878" data-name="Path 878" d="M215.23,681.77l2.87,3-5.67-.72c-7.77,7.95-15.67,29.72-15.67,29.72,10.82-5.33,20.83-2.44,30.89-1.13l4.22-4.71-.38,5.11a40.28,40.28,0,0,0,6.59,0c13.69-1.27,23.4-14.56,11.91-29.46C239,669.33,223.77,675.82,215.23,681.77Z" transform="translate(-21.4 -331.04)" fill="#e5f0fd"/>
      <path id="Path_879" data-name="Path 879" d="M252.57,687.55s-9.11-1.36-28,8.63" transform="translate(-21.4 -331.04)" fill="none" stroke="#fff" stroke-miterlimit="10" stroke-width="0.26"/>
      <path id="Path_880" data-name="Path 880" d="M506.38,765.45c-20.54,0,11-51.7,11-51.7h49.31s-31.5,51.7-11,51.7Z" transform="translate(-21.4 -331.04)" fill="#e5f0fd"/>
      <path id="Path_881" data-name="Path 881" d="M517.33,713.75s-2,3.21-4.56,8h49.3c2.62-4.81,4.57-8,4.57-8Z" transform="translate(-21.4 -331.04)" fill="#9a9ebb"/>
      <path id="Path_890" data-name="Path 890" d="M793.23,668.57s14.07,6.9,17.38,27.59" transform="translate(-21.4 -331.04)" fill="none" stroke="#fff" stroke-miterlimit="10" stroke-width="0.3"/>
      <path id="Path_896" data-name="Path 896" d="M834.4,642.74c12.78-2.78,16.49-4,29.92-15.89a102.834,102.834,0,0,0,.57-26.57S857.84,626.87,834.4,642.74Z" transform="translate(-21.4 -331.04)" fill="#3a3f48"/>
      <path id="Path_897" data-name="Path 897" d="M807.24,692.24a36.09,36.09,0,0,1,1.9-16.56,43.721,43.721,0,0,1,2,6.21C811.43,683.68,807.24,692.24,807.24,692.24Z" transform="translate(-21.4 -331.04)" fill="#3a3f48"/>
      <path id="Path_898" data-name="Path 898" d="M812.71,731.61s-20.15-48.44,14.2-77.17,38-54.16,38-54.16,14.2,44.8-3.3,65.66S820.63,708.37,812.71,731.61Z" transform="translate(-21.4 -331.04)" fill="#e5f0fd"/>
      <path id="Path_899" data-name="Path 899" d="M832.74,727.05s4.62-37.25,36.16-43,42.8-20.23,42.8-20.23-6.22,35.72-25.31,39.66C866.87,707.55,845.9,715.41,832.74,727.05Z" transform="translate(-21.4 -331.04)" fill="#e5f0fd"/>
      <path id="Path_900" data-name="Path 900" d="M835,723.94s2.26-5.75,10.08-5.58C845.07,718.36,838,723,835,723.94Z" transform="translate(-21.4 -331.04)" fill="#3a3f48"/>
      <line id="Line_16" data-name="Line 16" y2="86.34" transform="translate(791.31 376.51)" fill="none" stroke="#c1e6ee" stroke-miterlimit="10" stroke-width="0.85"/>
      <path id="Path_901" data-name="Path 901" d="M853.86,722.22l-1.48,1.68,3-.49c4.33,4.12,9,15.67,9,15.67-5.91-2.66-11.23-.92-16.61,0l-2.35-2.45.3,2.74a20.889,20.889,0,0,1-3.54.12c-7.38-.42-12.85-7.37-7-15.59C840.87,716,849.17,719.18,853.86,722.22Z" transform="translate(-21.4 -331.04)" fill="#bbc0e3"/>
      <path id="Path_902" data-name="Path 902" d="M833.92,726s4.87-.91,15.21,4.1" transform="translate(-21.4 -331.04)" fill="none" stroke="#fff" stroke-miterlimit="10" stroke-width="0.14"/>
      <line id="Line_17" data-name="Line 17" y2="68.72" transform="translate(812.23 394.13)" fill="none" stroke="#c1e6ee" stroke-miterlimit="10" stroke-width="0.85"/>
      <path id="Path_903" data-name="Path 903" d="M833.38,723.57s9.45,1.11,20.81,14.35h-1.74C851.76,737.92,833.38,723.57,833.38,723.57Z" transform="translate(-21.4 -331.04)" fill="#3a3f48"/>
      <path id="Path_904" data-name="Path 904" d="M844,659.65s-34.55,28.2-31.14,71.62" transform="translate(-21.4 -331.04)" fill="none" stroke="#fff" stroke-miterlimit="10" stroke-width="0.3"/>
      <path id="Path_905" data-name="Path 905" d="M832.74,727.05s11.11-26.11,35.63-30.08" transform="translate(-21.4 -331.04)" fill="none" stroke="#fff" stroke-miterlimit="10" stroke-width="0.3"/>
      <path id="Path_906" data-name="Path 906" d="M854.41,741l-4.4,1.76,6.19,2c4.22,11.88,2,38.08,2,38.08-8.61-10.64-20.3-12.42-31.28-15.86l-2.11-6.86-2,5.45a45.868,45.868,0,0,1-6.79-3.15c-13.5-7.82-17.19-26.13,1.74-36C835.85,716.89,848.45,730.81,854.41,741Z" transform="translate(-21.4 -331.04)" fill="#e5f0fd"/>
      <path id="Path_907" data-name="Path 907" d="M813.18,729.21s10,2.93,24.77,22.22" transform="translate(-21.4 -331.04)" fill="none" stroke="#fff" stroke-miterlimit="10" stroke-width="0.3"/>
      <line id="Line_18" data-name="Line 18" x2="1007.6" transform="translate(0 462.85)" fill="none" stroke="#3a3f48" stroke-miterlimit="10" stroke-width="0.96"/>
    </g>
  </g>
</svg>
