<svg xmlns="http://www.w3.org/2000/svg" width="907.54" height="642.018" viewBox="0 0 907.54 642.018">
  <g id="step2" transform="translate(0.03)">
    <g id="Layer_1" data-name="Layer 1">
      <path id="Path_644" data-name="Path 644" d="M224.52,760.43s44-30.23,64.57-3.85S305,833.1,305,833.1" transform="translate(-118.88 -213)" fill="none" stroke="#c1e6ee" stroke-miterlimit="10" stroke-width="0.49"/>
      <path id="Path_645" data-name="Path 645" d="M204,736.31l5.49,5.75-10.83-1.33c-14.77,15.23-29.69,56.86-29.69,56.86,20.61-10.25,39.74-4.8,59-2.38l8-9L235.2,796a76.6,76.6,0,0,0,12.58-.07c26.13-2.52,44.58-28,22.54-56.32C249.21,712.39,220.2,724.87,204,736.31Z" transform="translate(-118.88 -213)" fill="#bbc0e3"/>
      <path id="Path_646" data-name="Path 646" d="M275.28,747.08s-17.41-2.53-53.45,16.67" transform="translate(-118.88 -213)" fill="none" stroke="#fff" stroke-miterlimit="10" stroke-width="0.49"/>
      <path id="Path_647" data-name="Path 647" d="M829.13,673.54l-19-9.25,28.18-6.68c22.7-51.5,21.44-168.82,21.44-168.82-41.82,44.51-94.43,48.6-144.44,60.28l-11.65,29.85L696.41,554a200.308,200.308,0,0,0-31.22,11.78C602.5,596.13,580.07,676.39,661,726.63,738.59,774.76,799.25,717,829.13,673.54Z" transform="translate(-118.88 -213)" fill="#bbc0e3"/>
      <path id="Path_648" data-name="Path 648" d="M796.91,702.45,799,711.4l5.53-11.35c24.07-4.75,73.86,7,73.86,7-22.92,13.55-29.67,35.55-39.41,55.71l-13.81,2.12,9.91,5.47a87.465,87.465,0,0,1-8,12.16C808.25,806.25,772,808.14,758.3,768.9,745.22,731.32,775.59,711,796.91,702.45Z" transform="translate(-118.88 -213)" fill="#e5f0fd"/>
      <path id="Path_649" data-name="Path 649" d="M807.06,732.38S748.93,750.2,756.68,855" transform="translate(-118.88 -213)" fill="none" stroke="#fff" stroke-miterlimit="10" stroke-width="0.49"/>
      <path id="Path_650" data-name="Path 650" d="M581.79,0l5.91,37.13L545.93,59.07Z" fill="#e3e5e3"/>
      <path id="Path_651" data-name="Path 651" d="M581.79,0l5.91,37.13L545.93,59.07Z" fill="#bbc0e3" opacity="0.66"/>
      <path id="Path_652" data-name="Path 652" d="M508.81,88.6,558.17,8.86l14.34,13.08L545.93,59.07,587.7,37.13l16.03,14.34Z" fill="#bbc0e3"/>
      <path id="Path_653" data-name="Path 653" d="M563.72,13.92,581.79,0l-9.28,21.94Z" fill="#e3e5e3"/>
      <path id="Path_654" data-name="Path 654" d="M563.72,13.92,581.79,0l-9.28,21.94Z" fill="#bbc0e3" opacity="0.93"/>
      <path id="Path_655" data-name="Path 655" d="M781.39,513.57l-9-1.75,11.11-6c3.74-24.25-10-73.51-10-73.51-12.58,23.47-34.28,31.13-54,41.69l-1.53,13.89L712,478.22a86.485,86.485,0,0,0-11.82,8.48c-23,19.87-23.35,56.2,16.42,68.22C754.69,566.43,773.71,535.23,781.39,513.57Z" transform="translate(-118.88 -213)" fill="#e5f0fd"/>
      <path id="Path_656" data-name="Path 656" d="M701.92,557.39s0-27.59,30.71-46.15" transform="translate(-118.88 -213)" fill="none" stroke="#fff" stroke-miterlimit="10" stroke-width="0.49"/>
      <path id="Path_657" data-name="Path 657" d="M307.33,833.1s-.23-81.54-34.84-109.84" transform="translate(-118.88 -213)" fill="none" stroke="#c1e6ee" stroke-miterlimit="10" stroke-width="0.49"/>
      <path id="Path_658" data-name="Path 658" d="M805.17,776.42s-17.27-9-40.89,5.48l5.24,6.48Z" transform="translate(-118.88 -213)" fill="#3a3f48"/>
      <path id="Path_659" data-name="Path 659" d="M231.42,624.64,228.49,637l-7.64-15.67c-33.23-6.56-102,9.62-102,9.62,31.64,18.7,41,49.07,54.4,76.9l19.07,2.92-13.68,7.55a119.549,119.549,0,0,0,11,16.79c26.08,32.83,76.18,35.44,95-18.72C302.79,664.5,260.86,636.48,231.42,624.64Z" transform="translate(-118.88 -213)" fill="#e5f0fd"/>
      <path id="Path_660" data-name="Path 660" d="M176.32,651.48s31.3,8.44,102.66,78" transform="translate(-118.88 -213)" fill="none" stroke="#fff" stroke-miterlimit="10" stroke-width="0.49"/>
      <path id="Path_661" data-name="Path 661" d="M660.7,499.19,656.34,543,703,544.16l1.43-33.53S661.13,489,660.7,499.19Z" transform="translate(-118.88 -213)" fill="#f289af"/>
      <path id="Path_662" data-name="Path 662" d="M671.72,514.2c9.49,15.4,25.1,12.76,25.1,12.76l6.18,17.2,1.18-27.76C688.61,516.07,671.72,514.2,671.72,514.2Z" transform="translate(-118.88 -213)" fill="#3a3f48"/>
      <circle id="Ellipse_134" data-name="Ellipse 134" cx="42.19" cy="42.19" r="42.19" transform="translate(531.84 225.63)" fill="#f289af"/>
      <path id="Path_663" data-name="Path 663" d="M575.75,595.62s21.5-53.6,72.13-53,112.23-9.06,134.59,78.27l47.25-42.61L858,603.22s-46.83,120.67-106.32,89.87l24.68,140.7H642.82Z" transform="translate(-118.88 -213)" fill="#f289af"/>
      <circle id="Ellipse_135" data-name="Ellipse 135" cx="13.19" cy="13.19" r="13.19" transform="translate(562.11 258.34)" fill="#3a3f48"/>
      <circle id="Ellipse_136" data-name="Ellipse 136" cx="12.53" cy="12.53" r="12.53" transform="translate(595.65 248.53)" fill="#3a3f48"/>
      <path id="Path_664" data-name="Path 664" d="M705.87,480.82s3.86-7.47,9.92-4.4" transform="translate(-118.88 -213)" fill="none" stroke="#3a3f48" stroke-miterlimit="10" stroke-width="0.78"/>
      <path id="Path_665" data-name="Path 665" d="M681.45,486.41s-11.69-1.64-30.07,1.84" transform="translate(-118.88 -213)" fill="none" stroke="#3a3f48" stroke-miterlimit="10" stroke-width="0.78"/>
      <path id="Path_666" data-name="Path 666" d="M667.47,488l9.45-1.79-7.63-27.48s70,4.2,57.77-26.39-54.59-45.76-57.77-26.77,0,31.22-22.27,31.22-31.1,27.72-8.48,40.08C672.88,495.63,667.47,488,667.47,488Z" transform="translate(-118.88 -213)" fill="#3a3f48"/>
      <ellipse id="Ellipse_137" data-name="Ellipse 137" cx="13.17" cy="16.68" rx="13.17" ry="16.68" transform="matrix(0.952, -0.307, 0.307, 0.952, 523.408, 270.05)" fill="#f289af"/>
      <path id="Path_667" data-name="Path 667" d="M858,603.22l-28.27-24.89-47.25,42.61c-14.52-56.72-45.6-72.5-79.47-76.78l-3.78,6.55-19.11,33.11L661,550.71l-4.63-8h-8.49c-50.63-.65-72.13,53-72.13,53l3.78,238.17H776.35l-24.68-140.7C811.16,723.89,858,603.22,858,603.22Z" transform="translate(-118.88 -213)" fill="#ffc60a"/>
      <path id="Path_668" data-name="Path 668" d="M714.52,546.14c-3.79-.84-7.63-1.49-11.52-2l-3.78,6.55L680.11,583.8,661,550.71l-4.63-8h-9.96l34.05,52.11Z" transform="translate(-118.88 -213)" fill="#fff"/>
      <path id="Path_669" data-name="Path 669" d="M751.67,693.09s-6.86-3.8-12.08-20.25S756.78,724.3,758,730.22Z" transform="translate(-118.88 -213)" fill="#3a3f48"/>
      <line id="Line_5" data-name="Line 5" x2="24.78" y2="31.12" transform="translate(777.93 295.08)" fill="#fff" stroke="#fff" stroke-miterlimit="10" stroke-width="0.78"/>
      <line id="Line_6" data-name="Line 6" x2="24.79" y2="31.12" transform="translate(769.83 301.24)" fill="#fff" stroke="#fff" stroke-miterlimit="10" stroke-width="0.78"/>
      <line id="Line_7" data-name="Line 7" x2="24.79" y2="31.12" transform="translate(761.18 307.59)" fill="#fff" stroke="#fff" stroke-miterlimit="10" stroke-width="0.78"/>
      <path id="Path_670" data-name="Path 670" d="M619.66,646.88a4.57,4.57,0,0,1-6.67-6.25" transform="translate(-118.88 -213)" fill="none" stroke="#231f20" stroke-miterlimit="10" stroke-width="0.78"/>
      <path id="Path_671" data-name="Path 671" d="M606.19,634.51a4.57,4.57,0,0,1,6.67,6.25" transform="translate(-118.88 -213)" fill="none" stroke="#231f20" stroke-miterlimit="10" stroke-width="0.78"/>
      <path id="Path_672" data-name="Path 672" d="M629.18,587.4a4.574,4.574,0,1,1-6.68-6.25" transform="translate(-118.88 -213)" fill="none" stroke="#231f20" stroke-miterlimit="10" stroke-width="0.78"/>
      <path id="Path_673" data-name="Path 673" d="M615.71,575a4.57,4.57,0,1,1,6.67,6.24" transform="translate(-118.88 -213)" fill="none" stroke="#231f20" stroke-miterlimit="10" stroke-width="0.78"/>
      <path id="Path_674" data-name="Path 674" d="M670.86,615.36a4.574,4.574,0,0,1-6.68-6.25" transform="translate(-118.88 -213)" fill="none" stroke="#231f20" stroke-miterlimit="10" stroke-width="0.78"/>
      <path id="Path_675" data-name="Path 675" d="M657.39,603a4.57,4.57,0,1,1,6.67,6.24" transform="translate(-118.88 -213)" fill="none" stroke="#231f20" stroke-miterlimit="10" stroke-width="0.78"/>
      <path id="Path_676" data-name="Path 676" d="M663.08,658.29a4.57,4.57,0,0,1-6.67-6.25" transform="translate(-118.88 -213)" fill="none" stroke="#231f20" stroke-miterlimit="10" stroke-width="0.78"/>
      <path id="Path_677" data-name="Path 677" d="M649.61,645.93a4.57,4.57,0,1,1,6.67,6.24" transform="translate(-118.88 -213)" fill="none" stroke="#231f20" stroke-miterlimit="10" stroke-width="0.78"/>
      <path id="Path_678" data-name="Path 678" d="M721.26,646.94a4.571,4.571,0,0,1-6.68-6.24" transform="translate(-118.88 -213)" fill="none" stroke="#231f20" stroke-miterlimit="10" stroke-width="0.78"/>
      <path id="Path_679" data-name="Path 679" d="M707.79,634.58a4.57,4.57,0,1,1,6.67,6.25" transform="translate(-118.88 -213)" fill="none" stroke="#231f20" stroke-miterlimit="10" stroke-width="0.78"/>
      <path id="Path_680" data-name="Path 680" d="M729.16,579.77a4.57,4.57,0,1,1-6.67-6.24" transform="translate(-118.88 -213)" fill="none" stroke="#231f20" stroke-miterlimit="10" stroke-width="0.78"/>
      <path id="Path_681" data-name="Path 681" d="M715.69,567.41a4.571,4.571,0,0,1,6.68,6.24" transform="translate(-118.88 -213)" fill="none" stroke="#231f20" stroke-miterlimit="10" stroke-width="0.78"/>
      <path id="Path_682" data-name="Path 682" d="M764.73,606.79a4.57,4.57,0,1,1-6.67-6.24" transform="translate(-118.88 -213)" fill="none" stroke="#231f20" stroke-miterlimit="10" stroke-width="0.78"/>
      <path id="Path_683" data-name="Path 683" d="M751.26,594.43a4.574,4.574,0,1,1,6.68,6.25" transform="translate(-118.88 -213)" fill="none" stroke="#231f20" stroke-miterlimit="10" stroke-width="0.78"/>
      <path id="Path_684" data-name="Path 684" d="M779.05,665.92a4.574,4.574,0,1,1-6.68-6.25" transform="translate(-118.88 -213)" fill="none" stroke="#231f20" stroke-miterlimit="10" stroke-width="0.78"/>
      <path id="Path_685" data-name="Path 685" d="M765.58,653.55a4.57,4.57,0,1,1,6.67,6.25" transform="translate(-118.88 -213)" fill="none" stroke="#231f20" stroke-miterlimit="10" stroke-width="0.78"/>
      <path id="Path_686" data-name="Path 686" d="M834.58,639.25A4.574,4.574,0,1,1,827.9,633" transform="translate(-118.88 -213)" fill="none" stroke="#231f20" stroke-miterlimit="10" stroke-width="0.78"/>
      <path id="Path_687" data-name="Path 687" d="M821.11,626.89a4.57,4.57,0,1,1,6.67,6.24" transform="translate(-118.88 -213)" fill="none" stroke="#231f20" stroke-miterlimit="10" stroke-width="0.78"/>
      <path id="Path_688" data-name="Path 688" d="M709.83,721.14a4.574,4.574,0,1,1-6.68-6.25" transform="translate(-118.88 -213)" fill="none" stroke="#231f20" stroke-miterlimit="10" stroke-width="0.78"/>
      <path id="Path_689" data-name="Path 689" d="M696.36,708.78A4.57,4.57,0,1,1,703,715" transform="translate(-118.88 -213)" fill="none" stroke="#231f20" stroke-miterlimit="10" stroke-width="0.78"/>
      <path id="Path_690" data-name="Path 690" d="M661.91,699.86a4.571,4.571,0,0,1-6.68-6.24" transform="translate(-118.88 -213)" fill="none" stroke="#231f20" stroke-miterlimit="10" stroke-width="0.78"/>
      <path id="Path_691" data-name="Path 691" d="M648.44,687.5a4.57,4.57,0,1,1,6.67,6.25" transform="translate(-118.88 -213)" fill="none" stroke="#231f20" stroke-miterlimit="10" stroke-width="0.78"/>
      <path id="Path_692" data-name="Path 692" d="M660.3,744a4.574,4.574,0,1,1-6.68-6.25" transform="translate(-118.88 -213)" fill="none" stroke="#231f20" stroke-miterlimit="10" stroke-width="0.78"/>
      <path id="Path_693" data-name="Path 693" d="M646.83,731.66a4.57,4.57,0,0,1,6.67,6.25" transform="translate(-118.88 -213)" fill="none" stroke="#231f20" stroke-miterlimit="10" stroke-width="0.78"/>
      <path id="Path_694" data-name="Path 694" d="M718.47,688.45a4.57,4.57,0,0,1-6.67-6.25" transform="translate(-118.88 -213)" fill="none" stroke="#231f20" stroke-miterlimit="10" stroke-width="0.78"/>
      <path id="Path_695" data-name="Path 695" d="M705,676.09a4.571,4.571,0,1,1,6.68,6.24" transform="translate(-118.88 -213)" fill="none" stroke="#231f20" stroke-miterlimit="10" stroke-width="0.78"/>
      <path id="Path_696" data-name="Path 696" d="M749.49,732.55a4.57,4.57,0,0,1-6.67-6.25" transform="translate(-118.88 -213)" fill="none" stroke="#231f20" stroke-miterlimit="10" stroke-width="0.78"/>
      <path id="Path_697" data-name="Path 697" d="M736,720.19a4.571,4.571,0,0,1,6.68,6.24" transform="translate(-118.88 -213)" fill="none" stroke="#231f20" stroke-miterlimit="10" stroke-width="0.78"/>
      <path id="Path_698" data-name="Path 698" d="M720.08,814.58a4.57,4.57,0,0,1-6.67-6.25" transform="translate(-118.88 -213)" fill="none" stroke="#231f20" stroke-miterlimit="10" stroke-width="0.78"/>
      <path id="Path_699" data-name="Path 699" d="M706.61,802.21a4.574,4.574,0,1,1,6.68,6.25" transform="translate(-118.88 -213)" fill="none" stroke="#231f20" stroke-miterlimit="10" stroke-width="0.78"/>
      <path id="Path_700" data-name="Path 700" d="M680.37,805.15a4.57,4.57,0,0,1-6.67-6.25" transform="translate(-118.88 -213)" fill="none" stroke="#231f20" stroke-miterlimit="10" stroke-width="0.78"/>
      <path id="Path_701" data-name="Path 701" d="M666.9,792.78a4.574,4.574,0,1,1,6.68,6.25" transform="translate(-118.88 -213)" fill="none" stroke="#231f20" stroke-miterlimit="10" stroke-width="0.78"/>
      <path id="Path_702" data-name="Path 702" d="M596.39,812.77a4.57,4.57,0,1,1-6.67-6.24" transform="translate(-118.88 -213)" fill="none" stroke="#231f20" stroke-miterlimit="10" stroke-width="0.78"/>
      <path id="Path_703" data-name="Path 703" d="M582.92,800.41a4.574,4.574,0,1,1,6.68,6.25" transform="translate(-118.88 -213)" fill="none" stroke="#231f20" stroke-miterlimit="10" stroke-width="0.78"/>
      <path id="Path_704" data-name="Path 704" d="M739.85,785.08a4.57,4.57,0,1,1-6.67-6.24" transform="translate(-118.88 -213)" fill="none" stroke="#231f20" stroke-miterlimit="10" stroke-width="0.78"/>
      <path id="Path_705" data-name="Path 705" d="M726.38,772.72a4.574,4.574,0,1,1,6.68,6.25" transform="translate(-118.88 -213)" fill="none" stroke="#231f20" stroke-miterlimit="10" stroke-width="0.78"/>
      <path id="Path_706" data-name="Path 706" d="M694.69,767.23A4.571,4.571,0,0,1,688,761" transform="translate(-118.88 -213)" fill="none" stroke="#231f20" stroke-miterlimit="10" stroke-width="0.78"/>
      <path id="Path_707" data-name="Path 707" d="M681.22,754.87a4.57,4.57,0,1,1,6.67,6.25" transform="translate(-118.88 -213)" fill="none" stroke="#231f20" stroke-miterlimit="10" stroke-width="0.78"/>
      <path id="Path_708" data-name="Path 708" d="M768.61,824.07a4.571,4.571,0,0,1-6.68-6.24" transform="translate(-118.88 -213)" fill="none" stroke="#231f20" stroke-miterlimit="10" stroke-width="0.78"/>
      <path id="Path_709" data-name="Path 709" d="M755.14,811.71a4.57,4.57,0,1,1,6.67,6.25" transform="translate(-118.88 -213)" fill="none" stroke="#231f20" stroke-miterlimit="10" stroke-width="0.78"/>
      <path id="Path_710" data-name="Path 710" d="M782.47,620.94s-8.29,7.08-10.16,12.19,8.18-19.33,8.18-19.33Z" transform="translate(-118.88 -213)" fill="#3a3f48"/>
      <path id="Path_711" data-name="Path 711" d="M828.88,582a17.77,17.77,0,0,1,9.18-15.37c8.93-5,1.69-16.6,4.21-19.41s10.2,7.11,8.93,20.13l15.59,25.57s-1.31,9.9-9.25,12.3Z" transform="translate(-118.88 -213)" fill="#f289af"/>
      <rect id="Rectangle_272" data-name="Rectangle 272" width="61.44" height="27.69" rx="2.31" transform="matrix(0.125, -0.992, 0.992, 0.125, 726.548, 377.934)" fill="#131517"/>
      <rect id="Rectangle_273" data-name="Rectangle 273" width="61.348" height="27.648" rx="2.307" transform="translate(731.655 383.424) rotate(-82.519)" fill="#3a3f48"/>
      <path id="Path_712" data-name="Path 712" d="M882.57,555.2s-2,7.37-16.72,8.7" transform="translate(-118.88 -213)" fill="none" stroke="#f289af" stroke-linecap="round" stroke-miterlimit="10" stroke-width="6"/>
      <path id="Path_713" data-name="Path 713" d="M881.13,564.74s-3.48,5.38-18.25,6.7" transform="translate(-118.88 -213)" fill="none" stroke="#f289af" stroke-linecap="round" stroke-miterlimit="10" stroke-width="6"/>
      <path id="Path_714" data-name="Path 714" d="M879,572.48s-3.28,5.06-17.2,6.31" transform="translate(-118.88 -213)" fill="none" stroke="#f289af" stroke-linecap="round" stroke-miterlimit="10" stroke-width="6"/>
      <path id="Path_715" data-name="Path 715" d="M876.49,580.4s-3,4.63-15.71,5.78" transform="translate(-118.88 -213)" fill="none" stroke="#f289af" stroke-linecap="round" stroke-miterlimit="10" stroke-width="6"/>
      <path id="Path_716" data-name="Path 716" d="M573.61,689.21l22.78,144.58h23.27c.11,0-42.9-146.43-42.9-146.43Z" transform="translate(-118.88 -213)" fill="#3a3f48" stroke="#fff" stroke-miterlimit="10" stroke-width="0.49"/>
      <path id="Path_717" data-name="Path 717" d="M284.39,463.87a6.32,6.32,0,0,1-6.14-4.84l-7.6-31.2a6.33,6.33,0,0,1,12.3-3l7.59,31.2a6.33,6.33,0,0,1-4.65,7.65A6.47,6.47,0,0,1,284.39,463.87Z" transform="translate(-118.88 -213)" fill="#f289af"/>
      <rect id="Rectangle_274" data-name="Rectangle 274" width="73.83" height="143.03" transform="matrix(0.543, -0.84, 0.84, 0.543, 123.89, 199.195)" fill="#ffc60a"/>
      <path id="Path_718" data-name="Path 718" d="M163.98,137.17l39.68,77.71,80.43-.05" fill="none" stroke="#fff" stroke-miterlimit="10" stroke-width="0.78"/>
      <path id="Path_719" data-name="Path 719" d="M303.6,410.91S290.49,443,283,438.18l10.3,6.66Z" transform="translate(-118.88 -213)" fill="#3a3f48"/>
      <path id="Path_720" data-name="Path 720" d="M329.2,466.3a6.33,6.33,0,0,1-5.93-8.55l12.24-32.68a6.33,6.33,0,1,1,11.85,4.44l-12.24,32.68A6.32,6.32,0,0,1,329.2,466.3Z" transform="translate(-118.88 -213)" fill="#f289af"/>
      <path id="Path_721" data-name="Path 721" d="M319.07,460.2a6.32,6.32,0,0,1-5.88-8.66l13.5-34.17A6.33,6.33,0,0,1,338.46,422L325,456.19a6.33,6.33,0,0,1-5.93,4.01Z" transform="translate(-118.88 -213)" fill="#f289af"/>
      <path id="Path_722" data-name="Path 722" d="M310.21,454.29a6.23,6.23,0,0,1-2.1-.36,6.33,6.33,0,0,1-3.87-8.07l13.5-38.39a6.329,6.329,0,1,1,11.941,4.2l-13.5,38.39a6.33,6.33,0,0,1-5.97,4.23Z" transform="translate(-118.88 -213)" fill="#f289af"/>
      <path id="Path_723" data-name="Path 723" d="M298.4,450a6.33,6.33,0,0,1-5.95-8.5l11.82-32.37a6.329,6.329,0,1,1,11.891,4.34L304.34,445.8a6.32,6.32,0,0,1-5.94,4.2Z" transform="translate(-118.88 -213)" fill="#f289af"/>
      <path id="Path_724" data-name="Path 724" d="M280.6,441.93s8.89,5.08,17.27-5.15,39,20.66,39,20.66-9.1,42.17-13.46,45.75-47.09-13.51-47.09-13.51,6-13.76.74-35.39S280.6,441.93,280.6,441.93Z" transform="translate(-118.88 -213)" fill="#f289af"/>
      <path id="Path_725" data-name="Path 725" d="M272.24,488.25S167.82,676.21,221,716.08,353.9,687.6,353.9,687.6l-6.33,146.19h255L575.38,688.87l39.87,144.92h60.12S679.17,630,562.09,575s-251.25,41.76-251.25,41.76L333,506Z" transform="translate(-118.88 -213)" fill="#f289af"/>
      <path id="Path_726" data-name="Path 726" d="M565.3,576.52a84.81,84.81,0,0,1-161.25-5.22c-54.24,17.32-93.21,45.42-93.21,45.42L333,506l-60.75-17.72S167.82,676.21,221,716.08,353.9,687.6,353.9,687.6l-6.33,146.19h255L575.38,688.87l39.87,144.92h60.12S679.09,633.76,565.3,576.52Z" transform="translate(-118.88 -213)" fill="#1479ec"/>
      <path id="Path_727" data-name="Path 727" d="M404.05,571.3q-5.49,1.76-10.76,3.65a95.25,95.25,0,0,0,181.64,6.93q-4.66-2.85-9.63-5.36a84.81,84.81,0,0,1-161.25-5.22Z" transform="translate(-118.88 -213)" fill="#fff"/>
      <path id="Path_728" data-name="Path 728" d="M510.69,413.6c42.68-28.88-8.51-27.24-8.51-27.24,26.73-48-18.07-11.81-18.07-11.81-50.13-32.49-20.75,11.81-20.75,11.81-48.94,0-1.82,27.58-1.82,27.58h0c-12.45,9-20.68,24.55-20.68,42.25,0,27.84,20.36,50.42,45.49,50.42s45.49-22.58,45.49-50.42C531.85,438.27,523.4,422.54,510.69,413.6Z" transform="translate(-118.88 -213)" fill="#3a3f48"/>
      <path id="Path_729" data-name="Path 729" d="M345.75,311.33l-9.09,35.45,62.49,1.23-9.1-36.68Z" fill="#f289af"/>
      <path id="Path_730" data-name="Path 730" d="M464.63,524.33l-.07.27h0c14.3,22.65,38.88,11.12,38.88,11.12L518,561l-9.1-36.68Z" transform="translate(-118.88 -213)" fill="#3a3f48"/>
      <ellipse id="Ellipse_138" data-name="Ellipse 138" cx="39.03" cy="50.42" rx="39.03" ry="50.42" transform="translate(328.45 219.35)" fill="#f289af"/>
      <circle id="Ellipse_139" data-name="Ellipse 139" cx="12.46" cy="12.46" r="12.46" transform="translate(311.74 246.97)" fill="#f289af"/>
      <circle id="Ellipse_140" data-name="Ellipse 140" cx="18.62" cy="18.62" r="18.62" transform="translate(325.3 243.29)" fill="#fff" opacity="0.3"/>
      <path id="Path_731" data-name="Path 731" d="M474.21,460.2l-24.39,28.05a18.62,18.62,0,0,0,26.74-25.89l-2.33-2.14Z" transform="translate(-118.88 -213)" fill="#fff" opacity="0.3"/>
      <circle id="Ellipse_141" data-name="Ellipse 141" cx="12.46" cy="12.46" r="12.46" transform="translate(396.31 246.97)" fill="#f289af"/>
      <circle id="Ellipse_142" data-name="Ellipse 142" cx="18.62" cy="18.62" r="18.62" transform="translate(325.3 243.29)" fill="none" stroke="#3a3f48" stroke-miterlimit="10" stroke-width="1.47"/>
      <circle id="Ellipse_143" data-name="Ellipse 143" cx="18.62" cy="18.62" r="18.62" transform="translate(371.53 243.29)" fill="#fff" opacity="0.3"/>
      <path id="Path_732" data-name="Path 732" d="M520.44,460.2l-24.39,28.05a18.62,18.62,0,0,0,26.74-25.89l-2.33-2.14Z" transform="translate(-118.88 -213)" fill="#fff" opacity="0.3"/>
      <circle id="Ellipse_144" data-name="Ellipse 144" cx="18.62" cy="18.62" r="18.62" transform="translate(371.53 243.29)" fill="none" stroke="#3a3f48" stroke-miterlimit="10" stroke-width="1.47"/>
      <path id="Path_733" data-name="Path 733" d="M481.42,474.91s3.34-4.91,9,0" transform="translate(-118.88 -213)" fill="none" stroke="#3a3f48" stroke-miterlimit="10" stroke-width="1.47"/>
      <path id="Path_734" data-name="Path 734" d="M316.53,410.91c-.8,2.76-1.68,5.49-2.57,8.22s-1.85,5.43-2.77,8.14-1.93,5.4-2.94,8.09-2,5.36-3.13,8c.8-2.76,1.68-5.49,2.57-8.21s1.85-5.43,2.77-8.15,1.92-5.4,2.94-8.08S315.43,413.57,316.53,410.91Z" transform="translate(-118.88 -213)" fill="#3a3f48"/>
      <path id="Path_735" data-name="Path 735" d="M328,415.81c-.8,2.75-1.68,5.48-2.58,8.21s-1.84,5.43-2.76,8.14-1.93,5.4-2.94,8.09-2,5.36-3.14,8c.8-2.75,1.68-5.48,2.57-8.21s1.85-5.43,2.77-8.14,1.93-5.41,2.94-8.09S326.85,418.46,328,415.81Z" transform="translate(-118.88 -213)" fill="#3a3f48"/>
      <path id="Path_736" data-name="Path 736" d="M338.05,422.48c-.8,2.75-1.68,5.48-2.57,8.21s-1.85,5.43-2.77,8.14-1.93,5.4-2.94,8.09-2,5.36-3.14,8c.8-2.75,1.68-5.48,2.58-8.21s1.84-5.43,2.76-8.14,1.93-5.4,2.94-8.09S337,425.13,338.05,422.48Z" transform="translate(-118.88 -213)" fill="#3a3f48"/>
      <path id="Path_737" data-name="Path 737" d="M394.43,791.35s-20.69-2.47-30.36,1.76c-9.12,4-14.95,4.48-14.95,4.48l.42-9.82,5.46-7.68S389.66,782.09,394.43,791.35Z" transform="translate(-118.88 -213)" fill="#3a3f48"/>
      <line id="Line_8" data-name="Line 8" x2="905.57" transform="translate(1.94 620.79)" fill="none" stroke="#3a3f48" stroke-miterlimit="10" stroke-width="0.71"/>
      <path id="Path_738" data-name="Path 738" d="M768.39,788.38s-19.32,22.17-5.35,45.41h13.31Z" transform="translate(-118.88 -213)" fill="#3a3f48"/>
      <path id="Path_739" data-name="Path 739" d="M361.32,733.94l-5.14,5.42,10.17-1.29c13.92,14.25,28.08,53.28,28.08,53.28-19.39-9.55-37.33-4.37-55.35-2l-7.57-8.45.68,9.17a70.582,70.582,0,0,1-11.81,0c-24.54-2.27-41.95-26.08-21.36-52.79C318.75,711.64,346,723.26,361.32,733.94Z" transform="translate(-118.88 -213)" fill="#e5f0fd"/>
      <path id="Path_740" data-name="Path 740" d="M294.4,744.3s16.33-2.44,50.23,15.46" transform="translate(-118.88 -213)" fill="none" stroke="#fff" stroke-miterlimit="10" stroke-width="0.46"/>
      <path id="Path_741" data-name="Path 741" d="M829.31,789.21l-5.34,4.3,9.41.08c10.93,14.68,19,52,19,52-16.48-11.08-33.45-8.57-50.15-8.64l-5.86-8.62-.5,8.43a65.532,65.532,0,0,1-10.75-1.47c-22.07-5.09-35-28.9-13-50.69C793.28,763.68,816.69,777.61,829.31,789.21Z" transform="translate(-118.88 -213)" fill="#e5f0fd"/>
      <path id="Path_742" data-name="Path 742" d="M810.55,810.26s-11.76-26.09-44.09-18.93" transform="translate(-118.88 -213)" fill="none" stroke="#fff" stroke-miterlimit="10" stroke-width="0.49"/>
      <path id="Path_743" data-name="Path 743" d="M761.4,249.58H862.48a8.62,8.62,0,0,1,8.62,8.62V289a8.63,8.63,0,0,1-8.63,8.63H761.4a8.62,8.62,0,0,1-8.62-8.62v-30.8a8.63,8.63,0,0,1,8.63-8.63Z" fill="#1479ec"/>
      <rect id="Rectangle_275" data-name="Rectangle 275" width="98.41" height="4.28" transform="translate(763.12 261.69)" fill="#fff"/>
      <rect id="Rectangle_276" data-name="Rectangle 276" width="59.55" height="4.28" transform="translate(763.12 270.89)" fill="#fff"/>
      <rect id="Rectangle_277" data-name="Rectangle 277" width="59.55" height="4.28" transform="translate(763.12 279.89)" fill="#fff"/>
      <path id="Path_744" data-name="Path 744" d="M753,284.24V308l16.56-16.56Z" fill="#1479ec"/>
    </g>
  </g>
</svg>
